<?xml version="1.0" encoding="utf-8"?>
<!-- Generator: Adobe Illustrator 24.0.0, SVG Export Plug-In . SVG Version: 6.00 Build 0)  -->
<svg version="1.1" xmlns="http://www.w3.org/2000/svg" xmlns:xlink="http://www.w3.org/1999/xlink" x="0px" y="0px"
	 viewBox="0 0 950 620" style="enable-background:new 0 0 950 620;" xml:space="preserve">
<style type="text/css">
	.st0{fill:#B77D48;}
	.st1{fill:#AFAFAF;}
	.st2{fill:#724628;}
	.st3{fill:#E0AF6E;}
	.st4{fill:#FFFFFF;}
	.st5{font-family:'ArialMT';}
	.st6{font-size:12px;}
</style>
<g id="svg2" xmlns:cc="http://creativecommons.org/ns#" xmlns:dc="http://purl.org/dc/elements/1.1/" xmlns:inkscape="http://www.inkscape.org/namespaces/inkscape" xmlns:rdf="http://www.w3.org/1999/02/22-rdf-syntax-ns#" xmlns:sodipodi="http://sodipodi.sourceforge.net/DTD/sodipodi-0.dtd" xmlns:svg="http://www.w3.org/2000/svg">
	
		<sodipodi:namedview  bordercolor="#666666" borderopacity="1" gridtolerance="10" guidetolerance="10" id="namedview342" inkscape:current-layer="svg2" inkscape:cx="248.04005" inkscape:cy="326.05286" inkscape:object-nodes="true" inkscape:object-paths="true" inkscape:pageopacity="0" inkscape:pageshadow="2" inkscape:snap-nodes="true" inkscape:snap-smooth-nodes="true" inkscape:window-height="980" inkscape:window-maximized="1" inkscape:window-width="1920" inkscape:window-x="0" inkscape:window-y="34" inkscape:zoom="1" objecttolerance="10" pagecolor="#ffffff" showgrid="false">
		</sodipodi:namedview>
	<path id="kalimantan" class="st0" d="M787.3,360.8l-2.3,8.7l-12.5,4.2l-3.8-4.4l-1.8,0.5l3.4,13.1l5.1,0.6l6.8,2.6v2.6l3.1-0.6
		l4.5-6.3v-5.1l2.5-5.1l2.8,0.6l-3.4-7.1l-0.5-4.6L787.3,360.8L787.3,360.8z"/>
	<path id="papua_new_guinea" class="st1" d="M858.4,384.7l-0.4,24.4l3.5-0.2l4.6-5.4l3.9,0.2l2.5,2.2l0.8,6.9l8,4.2l2-0.8v-2.5
		l-6.4-5.3l-3.2-7.3l2.5-1.2l-1.8-4l-3.7-0.1l-0.9-4.3l-9.8-6.6L858.4,384.7L858.4,384.7z"/>
	<path id="mexico" class="st2" d="M143.1,261.9l4.8,15.2l-2.3,1.3l0.3,3l4.3,3.3v6l5.3,5l-2.3-14.9l-3-9.8l0.8-6.8l2.5,0.3l1,2.3
		l-1,5.8l13,25.4v9.1l10.5,12.3l11.5,5.3l4.8-2.8l6.8,5.5l4-4l-1.8-4.5l5.8-1.8l1.8,1l1.8-1.8h2.8l5-8.8l-2.5-2.3l-9.8,2.3l-2.3,6.5
		l-5.8,1l-6.8-2.8l-3-9.6l2.3-12.1l-4.6-2.9l-2.2-11.6l-1.9-0.8l-3.4,3.4l-3.9-2.1l-1.5-7.7l-15.4-1.6l-7.9-6L143.1,261.9
		L143.1,261.9z"/>
	<path id="estonia" class="st1" d="M523.4,180.1l-5.6-0.2l-3.5,2.2l0,1.6l2.3,2.2l7.2,1.2L523.4,180.1L523.4,180.1z"/>
	<path id="algeria" class="st1" d="M479.5,263.9l-4.1-1.4l-17,3.2l-3.7,2.8l2.3,11.7l-6.8,0.3l-4.1,6.5l-9.7,2.3l0,4.8l31.9,24.4
		l5.4,0.5l18.1-14.1l-1.8-2.3l-3.4-0.5l-2-3.4v-14.1l-1.4-1.4l0.2-3.6l-3.6-3.6l-0.5-3.9l1.6-1.1l-0.7-4.1L479.5,263.9L479.5,263.9z
		"/>
	<path id="morocco" class="st1" d="M453.9,268.7h-11.5l-2.3,5l-5.2,2.5l-4.3,11.6l-8.4,5l-11.8,19.4l11.5-0.2l0.5-5.7h2.9v-7.8h10.2
		l0.2-10l9.7-2.3l4.1-6.6l6.3-0.2L453.9,268.7L453.9,268.7z"/>
	<path id="mauretania" class="st1" d="M410.5,313.1l2.2,2.9l-0.5,12.3l3.2-2.3l2.3-0.5l3.2,1.1l3.6,5l3.4-2.3l16.5-0.2l-4.1-27.6
		l4.4,0l-8.2-6.3l0,4.1l-10.3,0l0,7.8l-3,0l-0.4,5.7L410.5,313.1L410.5,313.1z"/>
	<path id="senegal" class="st1" d="M415.8,326.8l-3.9,2.9l-0.9,1.6l-0.3,1.6l1.5,1l4.8-0.1l3.1-0.8l0.4,1.5l-0.3,2l3,1.5l0.6,0.7
		l3.9,0.1l0.1-1.7l-3.6-4.3l-4-5.4l-2.5-1L415.8,326.8L415.8,326.8z"/>
	<path id="gambia" class="st1" d="M412.5,334.8l-0.1,1.1l6.9-0.1l0.4-1l-0.1-1l-2,0.8L412.5,334.8L412.5,334.8z"/>
	<path id="casamance" class="st1" d="M412.4,336.7l1.2,3l0.7-1.9l8.4,0.9l-3.6-1.9L412.4,336.7L412.4,336.7z"/>
	<path id="bissau" class="st1" d="M414.2,341l1.4,2.8l3.9-3.4l0-1l-4.6-0.7L414.2,341L414.2,341z"/>
	<path id="guinee" class="st1" d="M416.1,344.4l3,4.7l4-3.4l4.1-0.2l3.4,4.5l2.9,1.9l1.1-2.1l1-0.5l-0.1-4.6l-1.9-5.5l-5.9,0.6
		l-7.3-0.6l0,1.9L416.1,344.4L416.1,344.4z"/>
	<path id="sierra_leone" class="st1" d="M419.6,349.6l5.6,5.5l4-4.9l-2.5-4l-3.5,0.4L419.6,349.6L419.6,349.6z"/>
	<path id="liberia" class="st1" d="M425.8,355.6l11,7.3l-0.3-5.6l-3.3-3.9l-3.2-2.9L425.8,355.6L425.8,355.6z"/>
	<path id="ivoire" class="st3" d="M437.7,363.2l4.3-3l5.3-0.9l5.4,1.2l-2.8-4.2l-0.8-2.6l0.8-7.6l-4.9,0.2l-2.2-2.1l-4.6,0.1
		l-2.2,0.4l0.2,5.1l-1.2,0.5l-1.4,2.6l3.6,4.2L437.7,363.2L437.7,363.2z"/>
	<path id="mali" class="st1" d="M425.1,332.3l3.1-2.1l17.1-0.1l-4-27.5l4.5-0.1l21.9,16.7l2.9,0.4l-1.1,9.3l-13.8,1.3l-10.6,7.9
		l-1.9,5.4l-7.4,0.3l-1.9-5.4l-5.6,0.4l0.2-1.8L425.1,332.3L425.1,332.3z"/>
	<path id="burkina" class="st1" d="M456.2,330.7l3.6-0.3l6,8.4l-5.5,4.2l-4-1l-5.4,0.1l-0.9,3.2l-4.5,0.2l-1.2-1.7l1.6-5.1
		L456.2,330.7L456.2,330.7z"/>
	<path id="niger" class="st1" d="M466.5,338.4l2.5-0.1l2.3-3.5l3.9-0.7l4.1,2.5l8.8,0.3l6.8-2.8l2.5-2.2l0.2-2.9l4.7-4.8l1.3-10.5
		l-3.1-6.5l-8-1.9l-18.4,14.4l-2.6-0.3l-1.1,10l-9.4,0.9L466.5,338.4L466.5,338.4z"/>
	<path id="ghana" class="st1" d="M450,353.5l1.1,2.6l2.9,4.6l1.6-0.1l4.4-2.5l-0.3-14.3l-3.4-1l-4.8,0.1L450,353.5L450,353.5z"/>
	<path id="togo" class="st1" d="M460.9,357.7l2.7-1.6l-0.1-10.4l-1.7-2.8l-1.1,0.9L460.9,357.7L460.9,357.7z"/>
	<path id="benin" class="st1" d="M464.3,355.9h2.1l0.1-6l2.7-3.9l-0.1-6.8l-2.4-0.1l-4.2,3.3l1.7,3.3L464.3,355.9L464.3,355.9z"/>
	<path id="nigeria" class="st1" d="M467.2,355.8l3.9,0.2l4.7,5.3l2.3,0.6l1.8-0.9l2.7-0.4l0.9-3.8l3.7-2.5l4-0.2l7.4-13.6l-0.1-3.1
		l-3.4-2.6l-6.8,3l-9.1-0.1l-4.4-2.8l-3.1,0.7l-1.6,2.8l-0.1,8l-2.6,3.7L467.2,355.8L467.2,355.8z"/>
	<path id="tunisia" class="st1" d="M480.5,263.8l5.5-2.2l1.8,1.2l0.1,1.4l-0.9,1.1l0.1,2l0.9,0.5v3.5l-1,1.6l0.1,1l3.7,1.3l-3,4.6
		l-1.2-0.1l-0.2,3.7l-1.3,0.2l-1.1-1l0.3-3.8l-3.6-3.5l-0.5-3.1l1.8-1.4L480.5,263.8L480.5,263.8z"/>
	<path id="libya" class="st1" d="M485.7,284.5l1.6-0.3l0.5-3.6h0.8l3.2-5.2l7.9,2.3l2.1,3.3l7.7,3.5l4-1.7l-0.4-1.7l-1.8-1.7
		l0.2-1.2l2.9-2.4h5.7l2.2,2.9l4.5,0.7l0.6,36.9l-3.4-0.1l-20.4-10.6l-2.2,1.3l-8.4-2.1l-2.3-3l-3.3-0.5l-1.7-3L485.7,284.5
		L485.7,284.5z"/>
	<path id="egypt" class="st1" d="M527.6,279.5l2.7,0.1l5.2,1.4l2.5,0.1l3.1-2.6h1.4l2.6,1.4h3.3l0.6,0l2.1,6l0.6,1.9l0.5,2.9l-1,0.7
		l-1.7-0.9l-2-6.4l-1.8-0.1l-0.1,2.2l1.2,3.7l9.4,11.6l0.2,5l-2.7,3.1l-25.6-0.3L527.6,279.5L527.6,279.5z"/>
	<path id="chad" class="st1" d="M498.4,332.4l0.1-3l4.7-4.6l1.3-11.3l-3.2-6l2.2-1.1l21.4,11.1l-0.1,10.9l-3.8,3.2v5.6l2.5,4.8h-4.4
		l-7.2,7.1l-0.2,2.2l-5.3-0.1l-0.1,1l-3-0.4l-2.1-3.9l-1.6-0.8l0.2-1.2l2-1.5v-7l-2.7-0.4l-3.3-2.4L498.4,332.4L498.4,332.4
		L498.4,332.4z"/>
	<path id="south_sudan" inkscape:label="#south sudan" class="st1" d="M554.7,346.8l-2.9-4.9l-0.3-3.6l-0.7,0.1l-0.2,1.1l-3.9,5.6
		l-3.1-1.5l-3.1,2.6l-6.4-0.4l-2.8-2.2l-4,2.1l-0.2,1.4l-1.2,0.7l12.3,12.7l6.7,0.4l1,1.5l9.6,0.2l0.1-2.2l0.8-1.5l3.2-0.4l-4-5.8
		h-2.9l-0.8-4.1l2.4-1L554.7,346.8z"/>
	<path id="sudan" class="st1" d="M557.6,307l-3.7,3.7l-25.8-0.2l0.3,6.6L526,317l-0.2,11.8l-3.7,3.2l-0.2,4.9l2.7,5.3l2.9,1.7l0,0.4
		l4-2.1l3.1,2.4l5.6,0.3l3.3-2.7l2.9,1.4l3.3-4.7l0.3-1.6l2.5-0.5l0.4,4.5l2.5,4.2l6-12.9v-7.8l4.4-5.1L557.6,307z"/>
	<path id="cameroon" class="st3" d="M483.5,360.7l3.2,3l-0.2,4.6l17.7-0.4l1.4-1.6l-5.1-5.5l-0.8-2l3.2-6l-2.2-4l-1.8-1v-2l2.1-1.4
		l0.1-6.3l-1.7-0.2l0,3.3L492,355l-4.5,0.2l-3.1,2.1L483.5,360.7L483.5,360.7z"/>
	<path id="eritrea" class="st1" d="M562.3,331.1l-0.3-5.9l4-4.6l1.1,0.8l2,6.5l9.4,7l-1.7,2.1l-6.8-5.9L562.3,331.1L562.3,331.1z"/>
	<path id="djibouti" class="st1" d="M577.1,338l-0.6,3.4l4-0.1l0.1-4.9l-1.5-0.9L577.1,338L577.1,338z"/>
	<path id="ethiopia" class="st2" d="M555.1,348.2l7.3-16.2l7.2,0l6.4,5.6l-0.5,4.6h5l0.5,2.8l8,4.8l5,0.3l-9.4,10.1l-13,4h-3.2
		l-5.7-4.9l-2.3-1l-4.4-6.5l-2.9,0l-0.3-3L555.1,348.2L555.1,348.2z"/>
	<path id="somaliland" class="st1" d="M581.4,341.5l4.1,2.8l1.2-0.1l10.1-3.5l1.2,3.7l-0.8,3.1l-2.2,1.7l-5.5-0.4l-7.8-4.8
		L581.4,341.5L581.4,341.5z"/>
	<path id="soqotra" class="st1" d="M605.3,336.1l2.1,2.4l2.9-1.7l1-0.4l-1.3-1.3l-2.5,0.8L605.3,336.1L605.3,336.1z"/>
	<path id="somalia" class="st1" d="M597.6,340.5l4.4-1.7l1.5,0.9l-0.2,3.9l-4,11.5l-21.8,23.4l-2.5-1.7l-0.2-9.9l3.3-3.8l7-2.1
		l10.2-10.8l2.7-2.4l0.8-3.5L597.6,340.5L597.6,340.5z"/>
	<path id="centrafrique" class="st1" d="M501.3,360.5l4.7,5l1.8-2.4l2.9,0.1l0.6-2.3l2.9-1.8l6,4.1l3.5-3.4l13.4,0.6l-12.4-12.8
		l1.7-1l0.2-2.3l-2.8-1.3h-4.1l-6.7,6.6l-0.2,2.7l-5.3-0.2l-0.2,1.2l-3.5-0.4l-3.1,5.9L501.3,360.5L501.3,360.5z"/>
	<path id="sao_tome" class="st1" d="M476.4,373.6l1.1-0.6l0.9,0.7l-0.9,1.3l-1-0.4L476.4,373.6L476.4,373.6z"/>
	<path id="principe" class="st1" d="M478.7,369.9l1.7-0.3l0.6,1.1l-0.9,0.9l-0.9-0.1L478.7,369.9L478.7,369.9z"/>
	<path id="bioko" class="st1" d="M482.5,363.8l-0.5,2l1.4,0.8l1.3-1l-0.5-2L482.5,363.8L482.5,363.8z"/>
	<path id="gabon" class="st1" d="M492,369.1l-0.1,2.5l-5.6-0.1l-3.5,6.7l8.1,8.9l2-1.7l-0.1-1.7l-1.4-0.6v-1.2l3.1-2l2.8,2.1l3,0.1
		l-0.1-10.5l-4.8-0.2l-0.1-2.2L492,369.1L492,369.1z"/>
	<path id="equatorial_guinea" class="st1" d="M486.6,369.1l-0.1,1.4l4.5,0.2l-0.1-1.6L486.6,369.1L486.6,369.1z"/>
	<path id="congo" class="st1" d="M496.6,369l-0.1,1.5l4.8,0.1l0.2,12.4l-4.4-0.1l-2.5-2l-2,1.1l-0.1,0.5l1,0.5l0.3,2.5l-2.7,2.3
		l0.6,1.2l3-2.3h1.4l0.5,1.4l1.9,0.8l6.1-5.2l-0.1-3.8l1.3-3.1l3.9-2.9l1-9.8l-2.8,0l-3.2,4.4L496.6,369L496.6,369z"/>
	<path id="cabinda" class="st1" d="M492.2,389.7l1.7,2.3l2.3-2.1l-0.7-2.2l-0.6,0L492.2,389.7L492.2,389.7z"/>
	<path id="drc" class="st1" d="M495,392.1l10.3-0.2l2.1,3l-0.1,2.2l0.8,0.7h5.1l1.5-2.9h2.1l0.8,0.9l2.9-0.1l0.8,10.1l5,0.2v0.8
		l13.3,6l0.6,1.2h2.8l-0.3-4.2l-5-2.4l0.3-3.2l2.2-5.1l5-0.2l-4.3-14.1l0.1-6l6.7-10.5l0.1-1.5l-1-0.5l0-2.9l-1.2-0.1l-1.2-1.6
		l-20.3-0.9l-3.7,3.6l-6.1-4l-2.1,1.3l-1.6,13.1l-3.9,3l-1.2,2.6l0.2,3.9l-7,5.7l-1.9-0.8l0.3,1.1L495,392.1L495,392.1z"/>
	<path id="rwanda" class="st1" d="M543.5,376.3l2.8,2.6l-0.1,2.8l-4.4,0.1v-3.1L543.5,376.3L543.5,376.3z"/>
	<path id="burundi" class="st1" d="M541.8,382.6l4.3-0.1l-1.1,3.7l-1.1,0.9h-1.3l-0.9-2.5L541.8,382.6L541.8,382.6z"/>
	<path id="uganda" class="st3" d="M543.9,375.5l3,2.8l1.9-1.2l5.1-0.8l0.9,0.1l0.3-2l2.9-6.1l-2.4-5.1l-7.9,0l0,2.1l1.1,1l-0.2,2.1
		L543.9,375.5L543.9,375.5z"/>
	<path id="kenya" class="st2" d="M556.5,363l2.7,5.2l-3.2,6.7l-0.4,2l15.9,9.9l4.9-7.8l-2.5-2l0-10.2l3.1-3.4l-5,1.7l-3.8,0l-5.9-5
		l-1.9-0.8l-3.5,0.3l-0.6,1L556.5,363L556.5,363z"/>
	<path id="tanzania" class="st2" d="M556.2,407.9l17.5-2.1l-3.9-7.6l-0.2-7.3l1.3-3.5l-16.6-10.4l-5.2,0.9l-1.8,1.3l-0.2,3l-1.2,4.2
		l-1.2,1.5l-1.8,0.2l3.3,11.6l5.5,2.6l3.8,0.1L556.2,407.9L556.2,407.9z"/>
	<path id="zambia" class="st2" d="M520.2,421.1l3.2,4.4l4.9,0.3l1.7,1l5.1,0.1l4.4-6.2l12.4-5.5l1.1-4.9l-1.4-7l-6.5-3.7l-4.3,0.3
		l-2.2,4.8l0.1,2.2l5.1,2.5l0.3,5.4l-4.4,0.2l-1.1-1.8l-12.1-5.2l-0.4,4l-5.7,0.2L520.2,421.1L520.2,421.1z"/>
	<path id="angola" class="st3" d="M494.3,393.1l3.4,12.7l-0.1,4l-5,5.4l-0.8,8.7l19.2,0.2l6.2,2.3l5.2-0.7l-3-3.8l0-10.7l5.9-0.3
		v-4.2l-4.8-0.2l-1-9.9l-2,0l-1.1-1l-1.2,0.1l-1.6,3.1h-6.1l-1.4-1.4l0.4-2L505,393L494.3,393.1L494.3,393.1z"/>
	<path id="malawi" class="st1" d="M552.8,415.8l3.1,3.3l-0.1,4.2l0.6,1.8l4.1-4.5l-0.5-5.7l-2.2-1.7l-2-10l-3.4-0.1l1.5,7.2
		L552.8,415.8L552.8,415.8z"/>
	<path id="mozambique" class="st2" d="M546.8,449.7l2.7,2.2l6.3-3.9l1-5.7v-9.5l10.2-8.3l1.7,0.1l6.2-5.9l-1-12.2l-16.3,2.1l0.5,3.7
		l2.8,2.2l0.7,6.6l-5.5,5.4l-1.3-3l0.2-4l-3.2-3.4l-7.8,3.6l7.2,3.7l0.2,10.7l-4.8,7.1L546.8,449.7L546.8,449.7z"/>
	<path id="zimbabwe" class="st1" d="M530.3,428.7l9,10.1l6.9,1.8l4.6-7.2l-0.4-9.6l-7.5-3.9l-2.8,1.3l-4.2,6.4l-5.8-0.1L530.3,428.7
		L530.3,428.7z"/>
	<path id="namibia" class="st1" d="M502.2,458.4l3.4,0.2l2,2l4.7,0.1l1.1-13.3v-8.7l3-0.6l1.1-9.1l7.6-0.2l2.7-2.2l-4.5-0.2
		l-6.2,0.8l-6.6-2.4h-18.7l0.5,5.3l6.2,9.2l-1.1,4.7l0.1,2.5L502.2,458.4L502.2,458.4z"/>
	<path id="botswana" class="st1" d="M514.1,447.7l2.2,0.7l-0.3,6.1l2.2,0.3l5.1-4.6l6.1,0.7l1.6-4.1l7.7-7l-9.3-10.7l-0.1-1.8
		l-1-0.3l-2.8,2.6l-7.3,0.2l-1,9.1l-2.9,0.7L514.1,447.7L514.1,447.7z"/>
	<path id="swaziland" class="st1" d="M546.5,450.4l-2.5,0.4l-1.1,3l1.9,1.8h2.3l2-2.8L546.5,450.4L546.5,450.4z"/>
	<path id="lesotho" class="st1" d="M533,461.8l3-2.4l1.4,0.1l1.7,2.2l-0.2,2.2l-2.9,1.1v0.8l-3.2-0.2l-0.8-2.4L533,461.8L533,461.8z
		"/>
	<path id="south_africa" class="st1" d="M539.8,440.1l-7.9,7.3l-1.9,4.5l-6.3-0.8l-5.2,4.6l-3.5-0.3l0.3-6.4l-1.2-0.4l-0.9,13.1
		l-6.1-0.1l-1.9-2.2l-2.7,0l2.5,7.1l4.4,4.2l-3.1,3.7l2,4.6l4.7,1.8l3.8-3.2l10.8,0.1l0.8-1l4.8-0.8l16.2-16.1l-0.1-5.1l-1.7,2.2
		h-2.6l-3.2-2.6l1.6-4l2.8-0.6l-0.3-8.2L539.8,440.1L539.8,440.1z M536,458.6l1.5-0.1l2.5,2.7l-0.1,3.1l-2.9,1.5l-0.2,1l-4.4,0
		l-1.4-3.3l1.3-2.4L536,458.6L536,458.6z"/>
	<path id="greenland" class="st1" d="M326.8,86.5l-1.4,2.2l2.5,2.5l-1.1,2.4l3.5,4.6l4.4-1.4l5.7-0.5l6.5,7.1l4.4,11.7l-3.5,7.3
		l4.9-0.8l2.7,1.6l0.3,3.5l-6,0.3l3.3,3.3l4.1,0.8l-9,12l-1.1,7.3l1.9,6l-1.4,3.5l2.5,7.6l4.6,5.2l1.4-0.3l3-0.8l0.3,4.4l1.9,2.7
		l3.5-0.3l2.7-10.1l8.2-10.1l12.2-4.9l7.6-9.5l3.5,1.6h7.3l6-6l7.3-3l0.8-4.6l-4.6-4.1l-4.1-1.4l-2.2-5.7l5.2-3l8.2,4.3l2.7-3
		l-4.4-2.4l9.3-12.5l-1.6-5.4l-4.4-0.3l1.6-4.9l5.4-2.4l11.1-9.8l-3.3-3.5l-12.5,1.1l-6.5,6.5l3.8-8.4l-4.4-1.1l-2.5,4.3l-3.5-3
		l-9.8,1.1l2.7-4.3l16-0.5l-4.1-5.4l-17.4-3.3l-7.1,1.1l0.3,3.5l-7.3-2.5l0.3-2.4l-5.2,1.1l-1.1,2.7l5.4,1.9l-5.7,4.1l-4.1-4.6
		l-5.7-1.6l-0.8,4.3h-5.7l-2.2-4.6l-9-1.4l-4.9,2.5l-0.3,3.3l-6.3-0.8l-3.8,1.6l0.3,3.8v1.9l-7.1,1.4l-3.3-2.2l-2.2,3.5l3.3,3.5
		l6.8-0.8l0.5,2.2l-5.2,2.5L326.8,86.5L326.8,86.5z"/>
	<path id="disko" class="st1" d="M348.5,128.9l1.6,2.4l-0.8,3h-1.6l-2.2-2.4l0.5-1.9L348.5,128.9L348.5,128.9z"/>
	<path id="milne" class="st1" d="M416.5,122.1l4.6,1.4l-0.3,3.8l-4.9-2.4l-1.1-1.4L416.5,122.1L416.5,122.1z"/>
	<path id="australia" class="st1" d="M766.8,464.4l-0.3,25.4l-3.9,2.9l-0.3,2.5l5.3,3.6l13.1-2.5h6.7l2.5-3.6l14.9-2.9l10.6,3.2
		l-0.7,4.3l1.4,4.3l8.2-1.4l0.3,2.1l-5.3,3.9l1.8,1.4l3.9-1.4l-1.1,11.8l7.5,5.7l4.3-1.4l2.1,2.1l12.4-1.8l11.7-19l4.3-1.1l8.5-15.7
		l2.1-13.6l-5.3-6.8l2.1-1.4l-4.3-13.2l-4.6-3.2l0.7-17.9l-4.3-3.2l-1.1-10H858l-7.1,23.6l-3.9,0.4l-8.9-8.9l5-13.2l-9.2-1.8
		l-10.3,2.9l-2.8,8.2l-4.6,1.1l-0.3-5.7L797,435.4l0.3,4.3l-2.8,3.9h-7.1l-15.3,6.4L766.8,464.4L766.8,464.4z"/>
	<path id="tasmania" class="st1" d="M831.4,532.7l-1.8,7.2l0.3,5l5.3-0.4l6-9.3L831.4,532.7L831.4,532.7z"/>
	<path id="new_zealand_north_island" class="st1" d="M918.7,518.4l1.1,11.8l-1.4,5.4l-5.3,3.9l0.3,4.6v5l1.4,1.8l14.5-12.5v-2.9
		h-3.5l-5-16.8L918.7,518.4L918.7,518.4z"/>
	<path id="new_zealand_south_island" class="st1" d="M908,544.1l2.8,5.4L903,557l-0.7,3.9l-5.3,0.7l-8.9,8.2l-8.2-3.9l-0.7-2.9
		l14.9-6.4L908,544.1L908,544.1z"/>
	<path id="new_caledonia" class="st1" d="M912.3,456.9l-0.3,1.8l4.6,6.4l2.5,1.1l0.3-2.5L912.3,456.9L912.3,456.9z"/>
	<path id="sumatra" class="st0" d="M728.1,354l-0.3,2.3l6.8,11.4h2l14.2,23.7l5.7,0.6l2.8-8.3l-4.5-2.9l-0.8-4.6L728.1,354
		L728.1,354z"/>
	<path id="east_malaysia" class="st1" d="M769.8,369.4l3,3.5l11.6-4l2.3-8.8l5.2-0.4l4.7-3.4l-6.1-4.5l-1.4-2.5l-3,5.6l1.1,3.2
		l-1.8,2.7l-3.5-0.9l-8.4,6.2l0.2,3.6L769.8,369.4L769.8,369.4z"/>
	<path id="brunei" class="st1" d="M785.4,355.7l-2.9,3.5l2.4,0.7l1.3-1.9L785.4,355.7L785.4,355.7z"/>
	<path id="sulawesi" class="st0" d="M795.2,385.5l2.3,2.8l-1.5,4.2v0.8h3.3l1.2-10.4l1.1,0.3l2,9.5l1.9,0.5l1.8-4.1l-1.8-6.1
		l-1.5-2.7l4.6-3.4l-1.1-1.5l-4.4,2.9h-1.2l-2.2-3.2l0.7-1.4l3.6-1.8l5.5,1.7l1.7-0.1l4.1-3.9l-1.7-1.7l-3.8,3h-2.5l-3.7-1.8
		l-2.7,0.1l-3,4.8l-1.9,8.2L795.2,385.5L795.2,385.5z"/>
	<path id="maluku" class="st0" d="M819.8,366.9l-1.9,4.5l3,3.9h1l1.3-2.6l0.7-0.9l-1.3-1.4l-1.9-0.7L819.8,366.9L819.8,366.9z"/>
	<path id="seram" class="st0" d="M825.6,381.9l-4,0.9l-1.2,1.3l1,1.7l2.7-1l1.7-1l2.5,2l1.1-0.9l-2-2.4L825.6,381.9L825.6,381.9z"/>
	<path id="java" class="st0" d="M758.8,394.8l-2.8,1.9l0.6,1.6l8.8,2l4.4,0.8l1.9,2l5,0.4l2.4,2l2.2-0.5l2-1.8l-3.6-1.7l-3.1-2.7
		l-8.2-2L758.8,394.8L758.8,394.8z"/>
	<path id="bali" class="st0" d="M787.4,403.4l-2.2,1.2l1.3,1.4l3.1-1.2L787.4,403.4L787.4,403.4z"/>
	<path id="lombok" class="st0" d="M791.1,402.5l0.4,1.9l2.3,0.6l0.9-1.1l-1-1.5L791.1,402.5L791.1,402.5z"/>
	<path id="sumba" class="st0" d="M796.5,407.4l-2.8,0.4l2.5,2.1h2L796.5,407.4L796.5,407.4z"/>
	<path id="flores" class="st0" d="M797.3,404.2l-0.6,1.2l4.4,0.7l3.4-2l-2-0.6l-3.1,0.9l-1.2-1L797.3,404.2L797.3,404.2z"/>
	<path id="timor" class="st0" d="M811.8,404.9l-5.1,4.3l0.5,1.1l2.2-0.4l2.5-2.4l5-0.7l-1-1.7L811.8,404.9L811.8,404.9z"/>
	<path id="new_ireland" class="st1" d="M886.1,385.4l-0.9,1.3l4.8,4.3l0.7,2.5l1.3-0.1l0.2-2.6l-1.5-1.3L886.1,385.4L886.1,385.4z"
		/>
	<path id="new_britain" class="st1" d="M888.5,391.5l-1,0.2l-0.6,2.6l-1.8,1.2l-5.5,1l0.2,2.1l5.8-0.3l3.7-2.3l-0.2-4L888.5,391.5
		L888.5,391.5z"/>
	<path id="bougainville" class="st1" d="M895,395.9l1.2,3.5l2.2,2.1l0.7-0.6l-0.2-2.3l-2.5-3L895,395.9L895,395.9z"/>
	<path id="choiseul" class="st1" d="M901.1,401.1l0.2,2.3l1.4,1.3l1.3-0.8l-1.2-2.4L901.1,401.1L901.1,401.1z"/>
	<path id="new_georgia" class="st1" d="M902.8,406.7l-1.2,1.3l1.2,2.3l1.5,0.4l-0.1-1.5L902.8,406.7L902.8,406.7z"/>
	<path id="santa_isabel" class="st1" d="M905.7,405.4l1,2.5l2,2.4l1.1-1.8l-1.5-2.5L905.7,405.4L905.7,405.4z"/>
	<path id="malaita" class="st1" d="M910.8,409.2l0.6,3.1l1.4,1.9l1.2-2.4L910.8,409.2L910.8,409.2z"/>
	<path id="santa_ana" class="st1" d="M912.4,416.1l-0.5,0.9l1.7,2.2l1.2,0.1l-0.7-2.9L912.4,416.1L912.4,416.1z"/>
	<path id="rennell" class="st1" d="M908.7,420.5l-1.8,0.8l1.5,2.1l1.3-0.7L908.7,420.5L908.7,420.5z"/>
	<path id="espiritu_santo" class="st1" d="M926.5,433.7l-1.2,1.7l0.5,1.9l0.6,0.4l1.1-1.5L926.5,433.7L926.5,433.7z"/>
	<path id="malakula" class="st1" d="M927.1,438.7l0.1,1.4l1.3,0.4l0.9-0.5l-0.9-1.5L927.1,438.7L927.1,438.7z"/>
	<path id="efate" class="st1" d="M929.1,450.8l-0.6,0.9l0.9,1l1.5-0.5L929.1,450.8L929.1,450.8z"/>
	<path id="palawan" class="st1" d="M795,334l-0.9,1.6l-0.5,2l-4.8,6.1l0.3,1.3l2-0.3l6.2-6.9L795,334L795,334z"/>
	<path id="negros" class="st1" d="M802.7,331.7l-0.1,5l1.8,1.8l0.7,3.6l1.8,0.4l0.9-2.2l-1.4-1.1l-0.4-6.3L802.7,331.7L802.7,331.7z
		"/>
	<path id="cebu" class="st1" d="M807.9,333.6l-0.1,4.4l1,1.7l1.8-2.1l-0.5-3.9L807.9,333.6L807.9,333.6z"/>
	<path id="samar" class="st1" d="M809.1,329.7l1.8,2.4l0.9,2.3h1.6l-0.3-4l-1.8-1.3L809.1,329.7L809.1,329.7z"/>
	<path id="path7462" class="st1" d="M812.6,338.8l0.4,2.9l-3.3,2.7l-2.8,0.3l-3,3.2l0.1,1.5l2.8-0.9l1.9-1.3l1.6,4.1l2.9,2l1.2-0.4
		l1-1.3l-2.3-2.3l1.3-1.1l1.5,1.3l1-1.7l-1-2.1l-0.2-4.7L812.6,338.8L812.6,338.8z"/>
	<path id="luzon" class="st1" d="M797,309.4l-2.6,1.8l-0.3,5.8l4,7.8l1.3,1.1l1.7-1.2l3,0.5l0.6,2.6l2.2,0.2l1-1.4l-1.3-1.8
		l-1.6-1.5l-3.4-0.4l-1.8-3l2.1-3.2l0.2-2.8l-1.4-3.6L797,309.4L797,309.4z"/>
	<path id="mindoro" class="st1" d="M798.4,326.6l0.8,2.7l1.3,0.9l1-1.3l-1.5-2.1L798.4,326.6L798.4,326.6z"/>
	<path id="hainan" class="st1" d="M765.5,306.6l-2.4,0.7l-1.7,2.1l1.4,2.8l2.1,0.2l2.4-2.1l0.6-2.8L765.5,306.6L765.5,306.6z"/>
	<path id="taiwan" class="st1" d="M793.1,284.7l-3.5,2.7l-0.2,5.2l3.1,3.6l0.8-0.7L793.1,284.7L793.1,284.7z"/>
	<path id="kyushu" class="st1" d="M808.9,252.9l-1.6,1.6l0.7,2.3l1.4,0.1l1,5l1.2,1.3l2-1.8l0.9-3.3l-2.5-3.6L808.9,252.9
		L808.9,252.9z"/>
	<path id="shikoku" class="st1" d="M817.7,249.6l-2.8,2.6l-0.1,3l0.7,0.9l3.7-3.2l-0.3-3.2L817.7,249.6L817.7,249.6z"/>
	<path id="honshu" class="st1" d="M813.8,243.4L809,249l0.9,1.4l2.4,0.3l4.5-3.5l3.2-0.6l2.9,3.4l2.2-0.8l0.9-3.3l4.1-0.1l4-4.8
		l-2.1-8l-1-4.2l2.1-1.7l-4.8-7.2l-1.2,0.1l-2.6,2.9v2.4l1.2,1.4l0.4,6.4l-3,3.7l-1.7-1.1l-1.3,3l-0.3,2.8l1,1.6l-0.7,1.3l-2.2-1.8
		h-1.5l-1.3,0.8L813.8,243.4L813.8,243.4z"/>
	<path id="hokkaido" class="st1" d="M822.1,199.9l-1.5,1.4l0.8,2.9l1.3,1.4l-0.1,4.4l-1.7,0.7l-1.3,3l3.9,5.4l2.6-0.9l0.5-1.4
		l-2.8-2.5l1.7-2.2l1.8,0.3l1.4,1.5l0.1-3.2l3.9-3.2l2.2-0.6l-1.8-3.1l-0.9-1.4l-1.4,1l-1.2,1.5l-2.7-0.6l-2.8-1.8L822.1,199.9
		L822.1,199.9z"/>
	<path id="iturup" class="st1" d="M836.5,196.9l-2.7,3.8l0.2,1.8l1.3-0.6l3.2-3.9L836.5,196.9L836.5,196.9z"/>
	<path id="urup" class="st1" d="M840,191.4l-1,2.6l0.1,1.7l1.6-1.1l1.5-3.1v-1.2L840,191.4L840,191.4z"/>
	<path id="paramushir" class="st1" d="M845.7,168.5l-1.2,1.5l0.1,2.4l1.2-0.1l1.9-3.4L845.7,168.5L845.7,168.5z"/>
	<path id="onekotan" class="st1" d="M843.4,174.3v4.2l1.3,0.5l1-1.5v-3.3L843.4,174.3L843.4,174.3z"/>
	<path id="sakhalin" class="st1" d="M804.3,159l-0.1,6.2l7.7,11.9l2.8,10.4l4.9,9.3l1.9,0.7l1.6-1.4l0.8-2.2l-7-7.6l0.2-3.9l1.5-0.7
		l0.4-2.3L805.3,160L804.3,159L804.3,159z"/>
	<path id="bering_island" class="st1" d="M858.2,139.9l-1.9,0.2l1.2,1.6l2.4,1.6l0.7-0.8L858.2,139.9L858.2,139.9z"/>
	<path id="medny" class="st1" d="M861.9,141l0.3,1.6l3,0.9l0.3-1.2L861.9,141L861.9,141z"/>
	<path id="attu" class="st1" d="M878.2,147.3l1.3,2.2l2.1-0.1l0.4-1.5L878.2,147.3L878.2,147.3z"/>
	<path id="amchitka" class="st1" d="M899.1,150.8l1.7,3.1l1.3-1.4v-2.1L899.1,150.8L899.1,150.8z"/>
	<path id="adak" class="st1" d="M913.4,141l-2.4,3.1l0.5,1.4l2.9-1.8l0.3-1.8L913.4,141L913.4,141z"/>
	<path id="umnak" class="st1" d="M925.2,131.4l-2.1,2.5l2.2,0.8L925.2,131.4L925.2,131.4z"/>
	<path id="unalaska" class="st1" d="M928.2,127.2l-1.4,2.2l0.1,2.2l1.9-0.8L928.2,127.2L928.2,127.2z"/>
	<path id="st._lawrence_island" class="st1" d="M886.9,74.8l-2.4,1.5l-0.6,2l1.1,1.3l2.5-0.8l2.5,0.8l1.4,0.4l-0.1-4.6L886.9,74.8
		L886.9,74.8z"/>
	<path id="st._lawrence_island_west" class="st1" d="M74.8,89.8l3.5,6.5l2.2-0.5v-2.2L74.8,89.8L74.8,89.8z"/>
	<path id="unalaska_west" class="st1" d="M55.3,146.7l-0.2,3l2.2-0.5v-1.3L55.3,146.7L55.3,146.7z"/>
	<path id="umnak_west" class="st1" d="M52,148l-4.3,2.2l0.7,2.3l1.7-1.3l3.3-1.5L52,148L52,148z"/>
	<path id="kerguelen" class="st1" d="M628.4,536.1l-0.2,4.3l5.9,1.4l1.4-3.5l-2.1,0.6l-2.7,0.6l-0.8-3.2L628.4,536.1L628.4,536.1z"
		/>
	<path id="mauritius" class="st1" d="M618.6,435.4l-1.5,2l0.3,2.1l3.2-2.6L618.6,435.4L618.6,435.4z"/>
	<path id="reunion" class="st1" d="M613,438.8l-2.3,0.1l-0.2,2l1.5,0.3l2.3-1.1L613,438.8L613,438.8z"/>
	<path id="madagascar" class="st1" d="M597.9,409.4l-2.1,5.1l-3.7,6.4l-6.4,0.5l-2.7,3.2l0.5,9.8l-4,4.6l0.5,7.8l3.3,3.8l4-0.5
		l4-2.9l-0.9-4.6l9.1-15.8l-1.8-2l1.8-3.8l2,0.6l0.6-1.5l-1.8-7.8l-1.1-3.2L597.9,409.4L597.9,409.4z"/>
	<path id="grande_comore" class="st1" d="M583.3,407.7l0.5,1.5l2,0.3l0.8-2L583.3,407.7L583.3,407.7z"/>
	<path id="mayotte" class="st1" d="M586.2,410.7l0.8,1.7h1.2l0.6-2.1L586.2,410.7L586.2,410.7z"/>
	<path id="aldabra" class="st1" d="M608,394.8l-0.6,1.2l1.7,1.4l1.2-1.4L608,394.8L608,394.8z"/>
	<path id="praslin" class="st1" d="M616.5,385.6l-1.8,1.2l1.4,2.1h1.8L616.5,385.6L616.5,385.6z"/>
	<path id="mahe" class="st1" d="M617.3,390.9l-1.2,1.4l0.9,1.4l1.7,0.3l0.2-2.9L617.3,390.9L617.3,390.9z"/>
	<path id="male" class="st1" d="M662,357.2l0.3,2.6l1.7,0.6l0.3-2.3L662,357.2L662,357.2z"/>
	<path id="maldive" class="st1" d="M664.2,362.7l-0.2,3.2l1.2,0.6l1.1-2.1L664.2,362.7L664.2,362.7z"/>
	<path id="gan" class="st1" d="M664.5,369l-1.1,1.1l1.2,1.1l1.5-1.1L664.5,369L664.5,369z"/>
	<path id="path151" class="st1" d="M378.3,253.5l-1.4,1.4l2.4,1.4l0.3-1.9L378.3,253.5L378.3,253.5z"/>
	<path id="terceira" class="st1" d="M385.6,252.6l-1.6,1.1l1.4,1.1l2.2-0.6L385.6,252.6L385.6,252.6z"/>
	<path id="pico" class="st1" d="M386.7,256.5l-0.8,2.2l1.1,1.4l1.4-1.1L386.7,256.5L386.7,256.5z"/>
	<path id="sao_miguel" class="st1" d="M393.2,260.8l-0.5,1.4l0.8,0.8l2.2-1.4L393.2,260.8L393.2,260.8z"/>
	<path id="madeira" class="st1" d="M413.8,272.9l-1.1,1.4l1.1,1.4l1.6-0.8L413.8,272.9L413.8,272.9z"/>
	<path id="lanzarote" class="st1" d="M421.3,290.2l-1.8,1l0.8,0.8L421.3,290.2L421.3,290.2z"/>
	<path id="gran_canaria" class="st1" d="M415.2,290.4l-2.2,0.6l1.1,1.6h1.6L415.2,290.4L415.2,290.4z"/>
	<path id="tenerife" class="st1" d="M410,288.7l-1.4,1.4l1.9,1.6l1.1-2.5L410,288.7L410,288.7z"/>
	<path id="santo_antao" class="st1" d="M393.2,327l-1.9,1.1l1.4,1.1l1.6-0.8L393.2,327L393.2,327z"/>
	<path id="boa_vista" class="st1" d="M397.9,329.2l-1.2,1.1l0.9,1.6l2.1-1L397.9,329.2L397.9,329.2z"/>
	<path id="santiago" class="st1" d="M395.2,332.3l-1.6,1l1.7,2.3l1.4-0.7L395.2,332.3L395.2,332.3z"/>
	<path id="kauai" class="st2" d="M15.6,285.1l-0.1,2.3l2,1.4l1.2-1.1L15.6,285.1L15.6,285.1z"/>
	<path id="oahu" class="st2" d="M20.9,288.6l-1.9,1.4l1.6,2l1.9-1.6L20.9,288.6L20.9,288.6z"/>
	<path id="kahului" class="st2" d="M24.7,291.8l-1.6,2.2l0.5,1.4l2.3-1.1L24.7,291.8L24.7,291.8z"/>
	<path id="hawaii" class="st2" d="M27.4,296.1l-1,5.5l1,2l3.1-1l1.6-2.7l-3.4-3.1L27.4,296.1L27.4,296.1z"/>
	<path id="guadeloupe" class="st1" d="M282.2,319.8l-1.5,0.6l0.5,1.3l1.8-1.1l-0.4-0.4L282.2,319.8L282.2,319.8z"/>
	<path id="dominica" class="st1" d="M284.7,321.3l-0.9,1.9l1.1,1.4l1.3-1.1L284.7,321.3L284.7,321.3z"/>
	<path id="martinique" class="st1" d="M287.7,326.5l-1.1,1l0.8,1.6l1.5-0.4L287.7,326.5L287.7,326.5z"/>
	<path id="st._lucia" class="st1" d="M287.6,330.5l-0.7,1.5l1.1,1.2l1.5-0.8L287.6,330.5L287.6,330.5z"/>
	<path id="st._vincent" class="st1" d="M287.7,334.3l-1.2,0.9l1,1.8l1.6-0.9L287.7,334.3L287.7,334.3z"/>
	<path id="grenada" class="st1" d="M286.2,337.7l-1.1,1.1l0.4,0.7h1.4l0.4-1.2L286.2,337.7L286.2,337.7z"/>
	<path id="trinidad" class="st1" d="M287.9,341.2l-1.1,1l-1.1,0.2v1.4l2.1,2l0.9-1.4l0.5-1.6l-0.2-1.3L287.9,341.2L287.9,341.2z"/>
	<path id="puerto_rico" class="st1" d="M276.7,317.5l-2.6-0.9l-2.1,1.3l1.1,1.2l3.6,0.5L276.7,317.5L276.7,317.5z"/>
	<path id="haiti-dominican_border" class="st1" d="M256.5,311.8l-1.7,1.7l1.9,0.8l0.3,2.4l-4.2,0.4l0.4,2.3l1.2,0.1l0.7-1.1l4.9,0.2
		l0.9,1.7l1.1-1.3l3.3-0.9l2.9,0.6l0.3-1.8l-5.3-3.5l-3.4-1.3L256.5,311.8L256.5,311.8z"/>
	<path id="domincan_republic" class="st1" d="M268.7,316.9l-5.3-3.5l-2.5-0.9l-0.8,6l0.9,1.7l1.1-1.3l3.4-0.9l2.9,0.6L268.7,316.9
		L268.7,316.9z"/>
	<path id="haiti" class="st1" d="M256.5,311.8l3.4,0.4l-0.4,4.2l-0.3,2.2l-4-0.2l-0.7,1.1l-1.2-0.1l-0.4-2.3l4.2-0.4l-0.3-2.4
		l-1.9-0.8L256.5,311.8L256.5,311.8z"/>
	<path id="falklands_west" class="st1" d="M313.6,544.6l-2.6-0.3l-2.6,1.8l1.9,2.1L313.6,544.6L313.6,544.6z"/>
	<path id="falklands_east" class="st1" d="M316.2,543.3l-0.9,2.8l-2.5,2.2l0.1,0.7l4.2-1.6l1.8-2.2L316.2,543.3L316.2,543.3z"/>
	<path id="iceland" class="st1" d="M412,153.7l-2-1.1l-2.6,1.7l-2.3,2.1l0.1,1.2l2.9,0.4l-0.2,2.1l-1,1.1l0.3,0.7l2.9,0.2v3.4
		l4.2,0.7l2.5,1.4l2.8,0.1l4.8-2.4l3.7-4.9l0.1-3.3L426,155l-1.9-1.6l-0.9,0.6l-1.3,1.7l-1.5-0.2l-1.5-1.6l-1.9,0.2l-2.8,2.3
		l-1.7,1.8l-0.9-0.8l-0.1-2l0.9-0.6L412,153.7L412,153.7z"/>
	<path id="spitsbergen" class="st1" d="M493.9,90.4l-1.6-1.7l-3.7,1.8h-6.7l-1.1,3.9l3.8,3.3l1.6-0.2l2.4-4l2,1.4l-1.4,2.8l-0.7,4.2
		l1.6,2.6l3.5-5.9l4.6-5.6l-1.8-1.5L493.9,90.4L493.9,90.4z"/>
	<path id="nordaustlandet" class="st1" d="M495.9,83.3l-3,2.7l1.8,2.7h3.2l1.3,1.8l3.9,2l4.5-2.6l3.1-2.6l-1.1-2.1l-3.1-1.8l-2.2,2
		l-1.5-1.9l-1.2,0.1L500,87l-2.2-2.3l-0.2-1.5L495.9,83.3L495.9,83.3z"/>
	<path id="edgeoya" class="st1" d="M502.6,95.5l-2.4,2.1l-2,1.5l0.9,1.7l1.9,0.6l3.1-1.4l1.4-1.8l-1.3-2.1L502.6,95.5L502.6,95.5z"
		/>
	<path id="prince_george" class="st1" d="M553.5,75.2l1.7,0.7L554,78v3l-2.6,1.6h-2.7l-1.5-1.9l0.2-2.1l1.2-1.6h2.4L553.5,75.2
		L553.5,75.2z"/>
	<path id="salisbury" class="st1" d="M560,73.3v2.1l1.7,1.4l2.4-0.2l2.1-1.9v-1.4h-1.9l-1.5,0.5l-1.2-1.4L560,73.3L560,73.3z"/>
	<path id="wilczek" class="st1" d="M569.8,73.5l1.2,2.6l2.4,0.2l1.7-0.7l-0.9-2.4l-2.2-0.5L569.8,73.5L569.8,73.5z"/>
	<path id="bell" class="st1" d="M579.6,70l-1.9-0.3l-1.7,1.7l0.9,1.6l0.5,2.4l2.2-1.7l0.5-1.9L579.6,70L579.6,70z"/>
	<path id="novaya_zemlya_north" class="st1" d="M590.1,88.4l-0.5,2.4l-4,3.5l-8.4,1.9l-6.9,11.4l-1.2,3.3l6.9,1.7l1-4.2l2.1-6.4
		l5.3-2.8l4.5-3.5l3.3-1.4h1.7v-4.7L590.1,88.4L590.1,88.4z"/>
	<path id="novaya_zemlya_south" class="st1" d="M567.9,113.7l4.7,0.5l1.5,5.4l4,4.2l-1.4,2.8h-2.4L572,124l-5-0.2L565,121v-1.9
		l3.1-0.9L567.9,113.7L567.9,113.7z"/>
	<path id="komsomolets" class="st1" d="M640.6,54.6l-2.2-1.4h-2.6l-0.5,1.6l-2.8,1.6l-2.1,0.7l-0.3,2.1l4.8,0.4L640.6,54.6
		L640.6,54.6z"/>
	<path id="october" class="st1" d="M645.9,55.1l-1.2,2.6l-2.4-0.2l-3.8,2.8l-1,3.5h2.4l1.4-2.3l3.3,2.4l3.1-1.4l2.2-1.9l-0.9-3
		l-1.2-2.1L645.9,55.1L645.9,55.1z"/>
	<path id="bolshevik" class="st1" d="M650.9,57l1.2,4.9l1.9,4.5l2.1-3.6l4-0.9v-2.6l-2.6-1.9L650.9,57L650.9,57z"/>
	<path id="kotelny" class="st1" d="M745.4,49.2l2.7,2.3l1.9-0.8l0.6-3.2l-3.9-2.7l-2.6,1.7l-6.3,0.6v2.8l-6.6,0.1v4.6l7.7,5.8l2-1.5
		l-0.5-4.1l4.9-1.2l-1-1.9l-1.8-1.8L745.4,49.2L745.4,49.2z"/>
	<path id="novaya_sibir" class="st1" d="M752.6,46.5l1.8,3.4l7-0.8l1.9-2.5l-0.5-2.2l-1.9-0.8l-1.8,1.4l-5.2,1.1L752.6,46.5
		L752.6,46.5z"/>
	<path id="lyakhovsky" class="st1" d="M752.1,59.7l-3.5-0.9l-2,2.1l-0.9,2.9l4.7-0.5l3.6-1.8L752.1,59.7L752.1,59.7z"/>
	<path id="wrangel" class="st1" d="M842.3,40.2l-2.9-0.9l-3.4,1.2l-1.7,2.5l2.1,2.8l5.6-2.5l1.1-1.2L842.3,40.2L842.3,40.2z"/>
	<path id="sri_lanka" class="st3" d="M686.2,344.5l0.3,2.7l0.3,2l-1.5,0.3l0.7,4.5l2.2,1.2l3.4-2l-1-4.7l0.3-1.7l-3.2-3L686.2,344.5
		L686.2,344.5z"/>
	<path id="cuba" class="st1" d="M226.5,303.4v1.3l5.3,0.1l2.5-1.5l0.4,1.1l5.2,1.3l4.6,4.2l-1.1,1.5l0.2,1.7l3.9,1l3.9-1.8l1.7-1.8
		l-2.5-1.3l-12.9-7.6l-4.5-0.5L226.5,303.4L226.5,303.4z"/>
	<path id="bimini" class="st1" d="M245.2,295.6l-1.3-0.4l-0.1,2.4l1.6,1.6l1.1-1.6L245.2,295.6L245.2,295.6z"/>
	<path id="andros" class="st1" d="M247.8,299.4l-1.7,1l1.6,2.3l0.9-1.2L247.8,299.4L247.8,299.4z"/>
	<path id="inagua" class="st1" d="M253.4,301.1l-1.8-0.1l0.2,1.2l1.4,2l1.2-1.3L253.4,301.1L253.4,301.1z"/>
	<path id="eleuthera" class="st1" d="M252.5,298.8l-3-1.3l-0.6-3l1.2-0.5l1.2,2.3l1.2,0.9L252.5,298.8L252.5,298.8z"/>
	<path id="grand_bahama" class="st1" d="M249.6,292.6l-1.6-0.4l-0.3-1.9l-1.6-0.6l1.1-1.1l1.9,0.7l1.4,0.9L249.6,292.6L249.6,292.6z
		"/>
	<path id="jamaica" class="st2" d="M244.6,316l-3.5,0.9v1l2,1.2h2.1l1.4-1.6L244.6,316L244.6,316z"/>
	<path id="irian_jaya" class="st0" d="M837.6,375.8l-4.2,0.5l-2.7,2l1.1,2.2l4.5,0.8v0.8l-2.9,2.3l1.4,4.9l1.4,0.1l1.2-4.8h2.2
		l0.9,4.7l10.8,9l0.3,7l3.7,4l1.7-0.1l0.4-24.7l-6.3-4.4l-5.9,4l-2.1,1.3l-3.5-2.2l-0.1-7.1L837.6,375.8L837.6,375.8z"/>
	<path id="alaska-westcopy" class="st1" d="M98.7,81.3l-8.4,2l1.7,9.4l9.1,2.5l0.5,2l-13.6,4.2l-7.7,12.7l2.7,13.4l4.4,3l3.5-3.2
		l1,2l-4.2,5l-16.3,7.5l-10.4,2.5L61,148l23.9-7l9.9-2.7l9.1-11.2l10.1-6.7l-5.2,8.7l5.7,0.8l9.6-4.2l1.7,7l6.7,1.5l6.9,6.7l0.5,5
		l-1,1.2l1.2,4.7h1.7l0.3-8h2l0.5,19.6l4.9-4.2l-3.5-20.4h-5.2l-5.7-7.2l27.9-47.3l-27.6-21.6l-30.8,6l-1.2,9.4l6.7,4l-2.5,6.5
		L98.7,81.3L98.7,81.3z"/>
	<path id="galapagos" class="st1" d="M200.6,374.6l-0.6,2.8l-1.1,1.2l0.8,1.4l2-0.8l1-1.7l-0.6-1.8L200.6,374.6L200.6,374.6z"/>
	<path id="banks" class="st1" d="M209.4,72.3l0.2,4l-8,8.3l2,6.7l5.8-1.6l3.3-4.9l8.4-3.1l6.9-0.5l-5.3-5.8l-2.7,2l-2-0.7l-1.1-2.5
		l-2.4-2.5L209.4,72.3L209.4,72.3z"/>
	<path id="prince_patrick" class="st1" d="M219.8,60.5l-1.8,3.1l8.6,3.1l3.1-4.7l1.3,3.1h2.2l4.2-4.7l-5.1-1.3l-2-1.6l-2.7,2.7
		L219.8,60.5L219.8,60.5z"/>
	<path id="eglinton" class="st1" d="M234.9,66.7l-6.9,2.9v2.2l8.9,3.3l-2,2.2l1.3,2.9l5.5-2.5h4.7l2.2,3.6l3.8-3.8l-0.9-3.6
		l-3.1,1.1l-0.4-4.5l1.6-2.7H248l-2.4,1.6l-1.1,0.9l0.7,3.1l-1.8,1.3l-2.7-0.2l-0.7-4L234.9,66.7L234.9,66.7z"/>
	<path id="mackenzie_king" class="st1" d="M244,59.8l-0.7,2.2l4.2,2l3.1-1.8l-0.2-1.3L244,59.8L244,59.8z"/>
	<path id="king_christian" class="st1" d="M247.3,56l-3.1,1.1l0.2,1.6l6.9-0.5l-0.2-1.6L247.3,56L247.3,56z"/>
	<path id="ellef_ringnes" class="st1" d="M262.1,59.8l-0.4,1.6l-1.1,1.6v2.2l4.2-0.7l4.4,3.8h1.5v-3.8l-4.4-4.9L262.1,59.8
		L262.1,59.8z"/>
	<path id="amund_ringnes" class="st1" d="M273.4,64.3l1.8,2l-1.5,2.7l1.1,2.9l4.9-2.7v-2l-2.9-3.4L273.4,64.3L273.4,64.3z"/>
	<path id="axel_heiberg" class="st1" d="M279.9,59.1l0.2,3.6h6l1.5,1.3l-0.2,1.6l-5.3,0.7l3.8,5.1l5.1,0.9l7.1-3.1l-10.2-15.4
		l-3.1,2l0.2,2.7l-3.5-1.3L279.9,59.1L279.9,59.1z"/>
	<path id="victoria" class="st1" d="M228.2,84.4l-8.4,2.2l-4.9,4.3l0.4,4.7l8.9,2.7l-2,4.5l-6.4-4L214,102l4.2,2.9l-0.2,4.7l6.4,1.8
		l7.8-0.4l1.3-2.5l5.8,6.5l4-1.3l0.7-4.5l2.9,2l0.4-4.5l-3.6-2.2l0.2-14.1l-3.1-2.5l-3.3,4.5L228.2,84.4L228.2,84.4z"/>
	<path id="prince_of_wales" class="st1" d="M255.3,94.2l-2.9-1.3l-1.6,2l3.1,4.9l0.2,4.7l6.7-4v-5.8l2.4-2.5l-2.4-1.8h-4L255.3,94.2
		L255.3,94.2z"/>
	<path id="prescott" class="st1" d="M269.5,92.2l-4.7,3.8l1.1,4.7h2.9l1.3-2.5l2,2l2-0.2l5.3-4.5L269.5,92.2L269.5,92.2z"/>
	<path id="cornwallis" class="st1" d="M269,84.8l-1.1,2.2l4.9,1.8l1.3-2L269,84.8L269,84.8z"/>
	<path id="bathurst" class="st1" d="M266.1,76.3l-4.9,0.7l-2.9,2.7l5.3,0.2l-1.5,4l1.1,1.8l1.5-0.2l3.8-6L266.1,76.3L266.1,76.3z"/>
	<path id="devon" class="st1" d="M274.6,74.8l-2.7,0.9l0.4,3.6l4.4,2.9l0.2,2.2l-1.3,1.3l0.7,4.5l17.1,5.6l4.7,1.6l4.7-4l-5.5-4.5
		l-5.1,1.3l-7.1-0.7l-2.7-2.7l-0.7-7.4l-4.4-2.2L274.6,74.8L274.6,74.8z"/>
	<path id="baffin" class="st1" d="M288.5,98l-4.9-0.5l-5.8,2.2l-3.1,4.2l0.9,11.6l9.5,0.4l9.1,4.5l6.4,7.4l4.9-0.2l-1.3,6.9
		l-4.4,7.4l-4.9,2.2l-3.5-0.7l-1.8-1.6l-2.7,3.6l1.1,3.6l3.8,0.2l4.7-2.2l4,10.3l10,6.5l6.9-8.7l-5.8-9.4l3.3-3.8l4.7,7.8l8.4-7.4
		l-1.5-3.3l-5.8,1.8l-4-10.9l3.8-6.3l-7.5-8l-4.2,2.9l-4-8.7l-8.4,1.1l-2.2-10.5l-6.9,4.7l-0.7,5.8h-3.8l0.4-5.1L288.5,98L288.5,98z
		"/>
	<path id="bylot" class="st1" d="M298.5,102l-1.8,1.8l1.5,2.5l7.3,0.9l-4.7-4.9L298.5,102L298.5,102z"/>
	<path id="ellesmere" class="st1" d="M291.4,76.8v2l-4.9,1.1l1.3,2.2l5.5,2.2l6.2,0.7l4.4,3.1l4.4-2.5l-3.1-3.1h4l2.4-2.7l6-0.9
		v-1.3l-3.3-2.2l0.4-2.5l9.3,1.6l13.8-5.4l-5.1-1.6l1.3-1.8h10.6l1.8-1.8l-21.5-7.6l-5.1-1.8l-5.5,4l-6.2-5.1l-3.3-0.2l-0.7,4.3
		l-4.2-3.8l-4.9,1.6l0.9,2.5l7.3,1.6l-0.4,3.6l4,2.5l9.8-2.5l0.2,3.3l-8,3.8l-4.9-3.8l-4.4,0.5L304,73l-2.2,1.1l-3.3-2.9l-2.4,1.6
		l2.2,4.2h3.8l-0.9,4l-3.1-0.5l-4-4.3L291.4,76.8L291.4,76.8z"/>
	<path id="southhampton" class="st1" d="M271.6,138.3l-4.2,5.3l-0.3,5.9l3.7-2.1h4.5l3.2,2.9l2.9-2.4L271.6,138.3L271.6,138.3z"/>
	<path id="newfoundland" class="st1" d="M323.2,207.5l-10.6,10.1l1.1,2.4l12.9,4.8l1.9-3.2l-1.1-5.3l-4.2,0.5l-2.4-2.7l4-4
		L323.2,207.5L323.2,207.5z"/>
	<path id="canada" class="st1" d="M163.9,85.1l2,3l1,4l5,1.3l3.5-3.8l3,1.5l8.5,0.8l6-2.5l1,8.3h3.5v-3.5l3.5,0.3l8.7,10.3l5.7,3.5
		l-3,4.8l1.3,1.3l11.2,2.3l0.3,5l3,0.5l0.8-7.5l4.7-1.3l3.5,5.3l7.5,3.5l3.7,0.8l2.5-3l0.3-4.8l4.5-2.8l1.5,4l-4,7l0.5,3.5l2.2-3.5
		l4.5-4l0.3-5.3l-2.5-4l0.8-3.3l6-3l2.7,2l0.5,17.6l4.2-3.8l2.5,1.5l-3.5,6l4.5,1l6.5-10l5.5,5.8l-2.2,10.3l-5.5,3l-5.2-2.5l-9.5,2
		l1,3.3l-2.5,4l-7.7,1.8l-8.7,6.8l-7.7,10.3l-1,3.3l5.2,2l2,5l7.2,7.3l11.5,5l-2.5,11.5l-0.3,3.3l3,2l4-5.3l0.5-10l6.2-0.3l3-5.8
		l0.5-8.8l8-15.6l10,3.5l5.2,7.3l-2.2,7.3l4,2.3l9.7-6.5l2.7,17.8l9,10.8l0.3,5.5l-10,2.5l-4.7,5l-10-2.3l-5-0.3l-8.7,6.8l5.2-1.3
		l6.5-1.3l1.3,1.5l-1.7,5.5l0.3,5l3,2l3-0.8l1.5-2.3h2l-3.2,6l-6.2,0.3l-2.7,4h-3.5l-1-3l5-5l-6,2l-0.3-8.5l-1.7-1l-5.2,2.3
		l-0.5,4.3h-12l-10.2,7l-13.7,4.5l-1.5-2l6.9-10.3l-3.9-3.8l-2.5-4.8l-5.1-3.9l-5.4-0.4l-9.8-6.8l-70.7-11.6l-1.2-4.8l-6.5-6v-5
		l1-4.5l-0.5-2.5l-2.5-2.5l-0.5-4l6.5-4.5l-4-21.6l-5.5-0.3l-5-6.5L163.9,85.1L163.9,85.1z"/>
	<path id="usa" class="st1" d="M154.4,194.8l-1,4l-3.5-2.3h-1.7l-1,4.3L135,228.2l3.2,23.8l4,2l0.8,6.5h8.2l8,6l15.7,1.5l1.7,8
		l2.5,1.8l3.5-3.5l2.7,1.3l2.5,11.5l4.2,2.8l3.5-6.5l10.7-7.8l7,3.3l6,0.5l0.3-3.8l12.4,0.3l2.5,2.8l0.5,6.3l-1.5,3.5l1.7,6h3.7
		l3.7-5.8l-1.5-2.8l-1.5-6l2.2-6.8l10.2-8.8l7.7-2.3l-1-7.3l10.7-11.6l10.7-1.8l-1.7-6l10.5-6v-8l-1-0.5l-3.7,1.3l-0.5,4.9
		l-12.4,0.1l-9.7,6.5l-15.3,5l-2.4-3l6.9-10.5l-3.4-3.3l-2.3-4.4l-4.8-3.9l-5.3-0.4l-9.9-6.8L154.4,194.8L154.4,194.8z"/>
	<path id="haida_gwaii" class="st1" d="M139.5,164.8l-1.7,3.3l0.6,2.3l1.1,0.7l-0.3,0.9l-1.2,0.3l0.3,3.4l1.3,1.3l1-1.1l-1.3-3.3
		l0.8-2.7l1.9-2.5l-1.4-2.3L139.5,164.8L139.5,164.8z"/>
	<path id="vancouver" class="st1" d="M145.1,184.4l-1.5,0.6l2.8,3.3l0.7,3.9l2.8,3l2.4-0.4v-3.9l-2.9-1.8L145.1,184.4L145.1,184.4z"
		/>
	<path id="guatemala" class="st2" d="M200.5,328l5.9,4.3l6-7.4l-1-1.5l-2-0.1v-4.4l-1.5-0.9l-4.6,1.4l1.8,4.1L200.5,328L200.5,328z"
		/>
	<path id="honduras" class="st1" d="M213.2,325.2l9.2-0.4l2.7,3.3l-1.7-0.4l-3.3,0.1l-4.3,4L214,336l-1.2-0.6l0-4.5l-2.7-1.8
		L213.2,325.2L213.2,325.2z"/>
	<path id="el_salvador" class="st2" d="M207.3,332.7l4.7,2.3l-0.1-3.7l-2.4-1.5L207.3,332.7L207.3,332.7z"/>
	<path id="nicaragua" class="st2" d="M223.4,328.5l2.2,0.4l0.1,4.5l-2.6,7.3l-6.9-0.7l-1.5-3.5l2-4.3l3.9-3.6L223.4,328.5
		L223.4,328.5z"/>
	<path id="costa_rica" class="st2" d="M223,341.4l1.4,2.7l1.1,1.5l-1.5,4.5l-2.9-2l-4.7-4.3v-2.9L223,341.4L223,341.4z"/>
	<path id="panama" class="st2" d="M226.2,346l-1.5,4.6l4.8,1.3l3,0.6l0.5-3.5l3.2-1.6l2.9,1.5l1.1,1.8l1.4-0.2l1.1-3.3l-3.6-1.5
		l-2.7-1.5l-2.7,1.8l-3.2,1.6l-3.3-1.3L226.2,346L226.2,346z"/>
	<path id="colombia" class="st2" d="M259.4,336.2l-2.1-0.2l-13.6,11.2l-1.4,4l-1.9,0.2l0.8,8.7l-4.8,11.6l5.2,4.4l6.6,0.4l4.5,6.7
		l6.6,0.2l-0.2,5h2.5l2.7-9.1l-2.5-3.1l0.6-5.8l5.2-0.4l-0.6-13.5l-11.6-3.7l-2.7-7.3L259.4,336.2L259.4,336.2z"/>
	<path id="venezuela" class="st2" d="M256.1,342.4l0.4,2.6l3.3,1l0.7-4.8l3.4-3.5l3.4,4l7.9,2.1l6.7-1.4l4.5,5.6l3.4,2.1l-3.8,5.7
		l1.3,4.3l-2.1,2.7l-2.2,1.9l-4.8-2.4l-1.1,1.1v3.5l3.5,1.7l-2.6,2.8l-2.6,2.8L272,374l-3.5-3.8l-0.7-14.3l-11.8-4l-2.1-6.3
		L256.1,342.4L256.1,342.4z"/>
	<path id="guyana" class="st1" d="M290.7,350.6l7.2,6.5l-2.9,3.3l-0.2,2l3.8,3.9l-0.1,3.7l-6.6,2.5l-3.9-5.3l0.8-6.4l-1.7-4.8
		L290.7,350.6L290.7,350.6z"/>
	<path id="suriname" class="st1" d="M298.8,357.6l2,1.9l3.2-2l2.9,0.1l-0.4,1.1l-1.2,2.5l-0.2,6.3l-5.8,2.3l0.3-4l-3.7-3.5l0.2-1.8
		L298.8,357.6L298.8,357.6z"/>
	<path id="guyane" class="st1" d="M307.8,358.2l5.9,3.6l-3.1,6.1l-1.1,1.4l-3.3-1.9l0.1-6.5L307.8,358.2L307.8,358.2z"/>
	<path id="ecuador" class="st2" d="M235.8,372.3l-4.7,2.9l-0.3,4.4l-0.9,1.4l3,2.9l-1.3,1.4l0.3,3.6l5.3,1.3l8.1-9.5l0-3.3l-3.9-0.3
		L235.8,372.3L235.8,372.3z"/>
	<path id="peru" class="st2" d="M230.7,386l-1.9,2l0.1,3.1l16.9,30.9l17.6,11.3l2.7-4.6l0.6-10l-1.4-6.3l-4.8-8.1l-2.9,0.9l-1.3,1.4
		l-5.7-6.5l1.4-7.7l6.6-4.3l-0.5-4l-6.7-0.3L248,378l-1.9-0.6l0.1,3.5l-8.7,10.3l-6.5-1.6L230.7,386L230.7,386z"/>
	<path id="bolivia" class="st2" d="M264.3,409.2l8.2-3.6l2.7,0.3l1.8,7.6l12.5,4.2l2.1,6.4l5.2,0.6l2.2,5.5l-1.5,5l-8.4,0.6l-3.1,8
		l-6.6-0.1l-2.1-0.4l-3.8,3.7l-1.9-0.2l-6.5-15l1.8-2.7l0.6-10.6l-1.6-6.3L264.3,409.2L264.3,409.2z"/>
	<path id="paraguay" class="st2" d="M297.4,435.9l2.2,2.4l-0.3,5.1l6.3-0.4l4.8,6.1l-0.4,5.5l-3.1,4.7l-6.3,0.3l-0.3-2.6l1.8-4.3
		l-6.2-3.9h-5.2l-3.9-4.2l2.8-8.1L297.4,435.9L297.4,435.9z"/>
	<path id="uruguay" class="st1" d="M306,468.4l-2,2.2l0.9,11.8l6.4,1.9l8.2-8.2L306,468.4L306,468.4z"/>
	<path id="argentina" class="st1" d="M311.1,454.6l1.9,1.8l-7.4,11l-2.6,2.9l0.9,12.5l5.7,6.9l-4.8,8.3l-3.6,1.6h-4.1l1.2,6.5
		l-6.5,2.2l1.5,5.5l-3.9,12.4l4.8,3.9l-2.6,6.4l-4.4,6.9l2.3,4.8l-5.7,0.9l-4.7-5.7l-0.8-17.9l-7.2-30.3l2.2-10.6l-4.7-13.5
		l3.1-17.6l2.9-3.4l-0.7-2.6l3.7-3.3l8.2,0.6l4.6,4.9l5.3,0.1l5.4,3.3l-1.6,3.7l0.4,3.8l7.6-0.4L311.1,454.6L311.1,454.6z"/>
	<path id="tierra_del_fuego_chile" class="st1" d="M290.7,550.5l-4.3,9.4l7.4,0.8l0.1-6.3L290.7,550.5L290.7,550.5z"/>
	<path id="tierra_del_fuego_argentina" class="st1" d="M294.6,555.2l0.3,5.7l4.4-0.4l3.8-2.5l-6.3-1.3L294.6,555.2L294.6,555.2z"/>
	<path id="chile" class="st1" d="M289.2,549.1l-3.2,3.5l-0.4,4.2l-6.2-3.5l-6.6-9.5l-1.9-3.4l2.7-3.5l-0.3-4.4l-3.1-1.3l-2.5-1.8
		l0.5-2.5l3.2-0.9l0.6-14.3l-5-2.9l-3.3-74.6l0.9-1.5l6.4,14.9l2.1,0l0.7,2.4l-2.7,3.3l-3.1,17.9l4.5,13.8l-2.1,10.4l7.3,30.6
		l0.8,17.9l5.2,6L289.2,549.1L289.2,549.1z"/>
	<path id="chiloe" class="st1" d="M267.9,511.6l-1.3,1.9l0.6,3.4l1.3,0.1l0.6-4.3L267.9,511.6L267.9,511.6z"/>
	<path id="brazil" class="st0" d="M319.9,475.3l6.3-12l0.2-10.1l11.7-7.5h6.5l5.1-8.7l0.9-16.7l-2.1-4.5l12.4-11.3l0.5-12.5
		l-16.8-8.2l-20.3-6.3l-9.6-0.9l2.6-5.4l-0.7-8.2l-2.1-0.7l-3.1,6.1l-1.6,2l-4.2-1.8l-14,4.9l-4.7-5.9l0.8-6.1l-4.4,4.5l-4.9-2.6
		l-0.5,0.7l0,2.1l4.2,2.3l-6.3,6.6l-4,0l-4-4.1l-4.5,0.1l-0.6,4.9l2.6,3.2l-3.1,9.9l-3.6,0.3l-5.7,3.6l-1.4,7.1l5,5.3l0.9-1l3.5-0.9
		l3,5l8.5-3.7l3.3,0.2l2.3,8.1l12.2,3.9l2.1,6.4l5.2,0.6l2.5,6.1l-1.7,5.5l2.2,2.9l-0.3,4.3l5.8-0.5l5.4,6.8l-0.4,4.8l3.2,2.7
		l-7.6,11.5L319.9,475.3L319.9,475.3z"/>
	<path id="belize" class="st1" d="M210.2,318.8l-0.1,3.6h0.8l2.9-5.3h-1.9L210.2,318.8L210.2,318.8z"/>
	<path id="russia" class="st1" d="M823.6,109.4l1.8,6.1l3.5,1l3.5-5.6l-2-3.8l0.8-3.3h5.3l-1.3,2.5l0.5,9.1l-7.5,18.7l0.8,4.1
		l-0.3,6.8l14.1,20.5l2.8,0.8l0.3-16.7l2.8-2.5l-3-6.6l2.5-2.8l-5.5-7.3l-3,0.3l-1-12.2l7.8-2l0.5-3.6l4-1l2.3,2l2.8-11.1l4.8-8.1
		l3.8-2l3.3,0.3v-3.8l-5.3-1L855,82l3.5-4l-3-6.8l2.5-2.5l3,4.1l7.5,2.8l8.3,0.8l1-3.5l-4.3-4.3l4.8-6.6L867.5,58l-2.8,5.6l-3.5-4.6
		l-19.8-6.8l-18.8,3.3l-2.8,1.5v1.5l4,2l-0.5,4.8l-7.3-3l-16.1,6.3l-2.8-5.8h-11.1l-5,5.3l-17.8-4l-16.3,3.3l-2,5.1l2.5,0.8
		l-0.3,3.8l-15.8,1.8l1,5.1l-14.6-2.5l3.5-6.6l-14.8-0.8l1.3,6.8l-4.8,2.3l-4-3.8L682.6,82l-6.3,5.8l-0.3,3.5l-4,0.3l-0.5-4.1
		l12.8-11.1v-7.6l-8.3-2.3l-10.8,3.5l-4.5-4.6h-2l-2.5,5.1l2,2.3l-14.3,7.8l-12.3,9.4l-7.5,10.4v4.3l8,3.3l-4,3l-8.5-3l-3.5,3
		l-5.3-6.1l-1,2.3l5.8,18.2l1.5,0.5l4-2l2,1.5v3.3l-3.8-1.5l-2.3,1.8l1.5,3.3l-1.3,8.6l-7.8,0.8L609,139l4.5-2.8l1-7.6l-5-6.6
		l-1.8-11.4l-8-1.3l-0.8,4.1l1.5,2l-3.3,2.8l1.3,7.6l4.8,2l1,5.6l-4.8-3l-12.3-2.3l-1.5,4.1l-9.8,3.5l-1.5-2.5l-12.8,7.1l-0.3,4.8
		l-5,0.8l1.5-3.5v-3.5l-5-1.8l-3.3,1.3l2.8,5.3l2,3.5v2.8l-3.8-0.8l-0.8-0.8l-3.8,4.1l2,3.5l-8.5-0.3l2.8,3.6l-0.8,1.5h-4.5
		l-3.3-2.3l-0.8-6.3l-5.3-2v-2.5l11.1,2.3l6,0.5l2.5-3.8l-2.3-4.1l-16.1-6.3l-5.5,1.4l-1.9,1.6l0.6,3.8l2.4,0.4l-0.5,5.9l7.3,17.1
		l-5.3,8.3l-0.4,1.9l2.7,1.9l-2.4,1.6l-1.6,0l0.3,7.4l2.2,3.1l0,3l2.8,0.3l4.3,1.6l4.6,6.3l0,1.7l-1.5,2.6l3.4-0.2l3.3,1l4.5,6.4
		l11.1,1l-0.5,7.6L555,225l0.8,1.3l-3.8,4.1l-1,3.8l2.3,3.3l7.3,2.5l3-1.8l19.3,7.3l0.8-2l-4-3.8v-4.8l-2.5-0.8l0.5-4.1l4-4.8
		l-7.2-5.4l0.5-7.5l7.7-5.1l9,0.5l1.5,2.8l9.3,0.5l6.8-3.8l-3.5-3.8l0.8-7.1l17.6-8.6l13.5,6.1l4.5-4.1l13.3,12.7l10-1l3.5,3.5
		l9.5,1l6.3-8.6l8,3.6l4.3,0.8l4.3-3.8l-3.8-2.5l3.3-5.1l9.3,3l2,4.1l4,0.3l2.5-1.8l6.8-0.3l0.8,1.8l7.8,0.5l5.3-5.6l10.8,1.3
		l3.3-1.3l1-6.1l-3.3-7.3l3.3-2.8h10.3l9.8,11.6l12.6,7.1h3.8l0.5-3l4.5-2.8l0.5,16.5l-4,0.3v4.1l2.3,2.8l-0.4,3.6l1.7,0.7l1-2.5
		l1.5,0.5l1,1l4.5-1l4.5-13.2l0.5-16.5l-5.8-13.2l-7.3-8.9l-3.5,0.5v2.8l-8.5-3.3l3.3-7.1l2.8-18.7l11.6-3.5l5.5-3.5h6l-1.5,2
		l1.5,2.5l5.3-5.6l3,0.3l-0.5-3.3l-4.8-1l3.3-11.9L823.6,109.4L823.6,109.4z"/>
	<path id="china" class="st1" d="M676,206.5l-3.5,8.7l-4.8-0.3l-5,11l4.3,5.4l-8.8,12.1l-4.5-0.8l-3,3.8l0.8,2.3l3.5,0.3l1.8,4.1
		l3.5,0.8l10.8,13.9v7.1l5.3,3.3l5.8-1l7.3,4.3l8.8,2.5l4.3-0.5l4.8-0.5l10-6.6l3.3,0.5l1.3,3l2.8,0.8l3.8,5.6l-2.5,5.6l1.5,3.8
		l4.3,1.5l0.8,4.6l5,0.5l0.8-2.3l7.3-3.8l4.5,0.3l5.3,5.8l3.5-1.5l2.3,0.3l1,2.8l1.8,0.3l2.5-3.5l10-3.8l9-10.9l3-10.4l-0.3-6.8
		l-3.8-0.8l2.3-2.5l-0.5-4.1l-9.5-9.6v-4.8l2.8-3.5l2.8-1.3l0.3-2.8h-7l-1.3,3.8l-3.3-0.8l-4-4.3l2.5-6.6l3.5-3.8l3.3,0.3l-0.5,5.8
		l1.8,1.5l4.3-4.3l1.5-0.3l-0.5-3.3l4-4.8l3,0.3l1.8-5.6l2.1-1.1l0.2-3.5l-2-2.1l-0.2-5.5l3.8-0.3l-0.3-14.1l-2.7,1.6l-1,3.6l-4.5,0
		l-13.1-7.4l-9.4-11.4l-9.6-0.1l-2.4,2.1l3.1,7.1l-1.1,6.7l-3.9,1.6l-2.2-0.2l-0.2,6.6l2.3,0.5l4-1.8l5.3,2.5v2.5l-3.8,0.3l-3,6.6
		l-2.8,0.3l-9.8,12.9l-10.3,4.6l-7,0.5l-4.8-3.3l-6.8,3.6l-7.3-2.3l-1.8-4.8l-12.3-0.8l-6.5-10.6h-2.8l-2.2-4.9L676,206.5z"/>
	<path id="mongolia" class="st1" d="M679.4,206.6l5.8-7.7l7,3.2l4.8,1.3l5.8-5.3l-4-2.9l2.6-3.7l7.8,2.7l2.7,4.4l4.9,0.1l2.5-1.9
		l5.2-0.2l1.1,1.9l8.7,0.4l5.5-5.6l7.6,0.8l-0.4,7.6l3.3,0.8l4.1-1.9l4.3,2.1l-0.1,1.1l-3.1,0.1l-3.3,6.9l-2.5,0.3l-9.9,12.9
		l-10.1,4.4l-6.3,0.5l-5.2-3.4l-6.7,3.6l-6.6-2.1l-1.9-4.8l-12.5-0.9l-6.4-10.9l-3.1-0.2L679.4,206.6L679.4,206.6z"/>
	<path id="north_korea" class="st1" d="M783.9,230.7l1.8,0.8l0.6,6.4l3.7,0.2l3.4-4l-1.2-1.1l0.1-4.3l3.2-3.8l-1.6-2.9l1-1.2l0.6-3
		l-1.8-0.8l-1.6,0.8l-1.9,5.9l-3.1-0.3l-3.6,4.3L783.9,230.7L783.9,230.7z"/>
	<path id="south_korea" class="st1" d="M794,234.6l6.2,5l1,4.9l-0.2,2.6l-3,3.4l-2.6,0.1l-3-6.4l-1.1-3l1.2-0.9l-0.3-1.3l-1.5-0.7
		L794,234.6L794,234.6z"/>
	<path id="kazakhstan" class="st1" d="M582.3,225.1l4.1-1.8l4.6-0.2l0.3,7h-2.7l-2,3.3l2.7,4.4l4,2.2l0.4,2.6l1.5-0.5l1.3-1.6
		l2.2,0.5l1.1,2.2h2.8v-2.9l-1.7-5.1l-0.8-4.1l5-2.2l6.8,1.1l4.3,4.3l9.6-0.9l5.4,7.6l6.3,0.3l1.7-2.9l2.2-0.5l0.3-3.2l3.3-0.2
		l1.7,2.1l1.7-4.1l15,2.1l2.5-3.3l-4.3-5.3l5.7-12.4l4.6,0.3l3.2-7.6l-6.3-0.6l-3.6-3.5l-10,1.2L642.3,191l-4.5,4l-13.8-6.3
		l-16.9,8.3l-0.5,5.9l4,4.6l-7.7,4.4l-10-0.2l-2.1-3.1l-7.8-0.4l-7.4,4.8l-0.2,6.5L582.3,225.1L582.3,225.1z"/>
	<path id="turkmenistan" class="st1" d="M599.5,244l-0.6,2.6h-4.2v3.6l4.5,2.9l-1.4,4v1.9l1.8,0.3l2.5-3.3l5.5-1.2l11.8,4.5l0.2,3.3
		l6.6,0.6l7.4-7.8l-0.9-2.5l-4.9-1.1l-13.8-9l-0.6-3.3h-5.2l-2.3,4.3h-2.3L599.5,244L599.5,244z"/>
	<path id="uzbekistan" class="st1" d="M634.6,255.5l3.1,0.2v-5.3l-2.9-1.7l4.9-6.2h2l2,2.3l5.2-2l-7.2-2.5l-0.3-1.5l-1.7,0.4
		l-1.7,2.9l-7.3-0.2l-5.3-7.6l-9.4,0.9l-4.5-4.4l-6.2-1.1l-4.5,1.8l2.6,8.7l0,2.9l1.9,0l2.3-4.4l6.2,0.1l0.9,3.4l13.3,8.8l5.1,1.2
		L634.6,255.5L634.6,255.5z"/>
	<path id="tajikistan" class="st1" d="M635.8,248.3l4.1-5.1h1.5l0.5,1.1l-1.9,1.4v1.1l1.3,0.9l6,0.4l2-0.8l0.9,0.2l0.6,1.9l3.6,0.4
		l1.8,3.8l-0.5,1.1l-0.7,0.1l-0.7-1.4l-1.5-0.1l-2.7,0.4l-0.2,2.5l-2.7-0.2l0.1-3.2l-2-1.9l-3,2.5l0.1,1.6l-2.6,0.9h-1.5l0.1-5.6
		L635.8,248.3L635.8,248.3z"/>
	<path id="kirgizstan" class="st1" d="M642.4,235.6l-0.3,2.5l0.3,1.6l8.7,2.9l-7.6,3.1l-0.9-0.7l-1.7,1.1l0.1,0.6l0.9,0.4l5.4,0.1
		l2.7-0.8l3.5-4.4l4.4,0.8l5.3-7.3l-14.1-1.9l-2,4.7l-2.5-2.6L642.4,235.6L642.4,235.6z"/>
	<path id="afghanistan" class="st1" d="M619.8,263.5l1.6,12.5l4,0.9l0.4,2.2l-2.8,2.4l5.3,4.3l10.3-3.7l0.8-4.4l6.5-4l2.5-9.4l1.8-2
		l-1.9-3.3l6.3-3.9l-0.8-1.1l-2.9,0.2l-0.3,2.7l-3.9,0l-0.1-3.6l-1.3-1.5l-2.1,1.9l0.1,1.8l-3.2,1.2l-5.8-0.4l-7.6,8L619.8,263.5
		L619.8,263.5z"/>
	<path id="pakistan" class="st1" d="M628.8,286.3l2.6,3.9l-0.3,2l-3.5,1.4l-0.3,3.2h4l1.4-1.1h7.5l6.8,6l0.9-2.9h5.1l0.1-3.6l-5.2-5
		l1.1-2.7l5.3-0.4l7.2-15l-4-3.1l-1.5-5.2l9.6-0.9l-5.7-8.1l-3-0.8l-1.2,1.5l-0.9,0.1l-5.7,3.6l1.9,3.1l-2.1,2.2l-2.6,9.6l-6.4,4.1
		l-0.9,4.5L628.8,286.3L628.8,286.3z"/>
	<path id="india" class="st0" d="M676.6,349.4l4.6-2.2l2.7-9.8l-0.1-12.1l15.6-16.8v-4l3.2-1.3l-0.1-4.6l-3.5-6.7l2-3.6l4.3,4
		l5.6,0.3v2.2l-1.7,1.9l0.4,1l3,0.1l0.6,3.4h0.9l2.2-4l1.1-10.5l3.7-2.6l0.1-3.6l-1.5-2.9l-2.3-0.1l-9.2,6.1l0.6,3.9l-6.5,0
		l-2.3-2.8l-1.2,0.2l0.4,3.9l-14-1l-8.7-3.9L676,279l-5.8-3.6l-0.1-7.4l-4-4.5l-9.1,0.9l1,4l4.5,3.6l-7.7,15.8l-5.2,0.4l-0.8,1.9
		l5.1,4.7l-0.3,4.8l-5.2-0.1l-0.6,2.4l4.3-0.2l0.1,1.9l-3.1,1.6l2,3.7l3.8,1.3l2.3-1.7l1.1-3.1l1.4-0.6l1.6,1.6l-0.5,4l-1.1,1.9
		l0.3,3.2L676.6,349.4L676.6,349.4z"/>
	<path id="nepal" class="st1" d="M676.8,279l0.5,4.3l8.1,3.7l13,1l-0.5-3.1l-8.7-2.4l-7.3-4.4L676.8,279L676.8,279z"/>
	<path id="bhutan" class="st1" d="M701,284.5l1.5,2.1l5.2,0l-0.5-2.9L701,284.5L701,284.5z"/>
	<path id="bangladesh" class="st1" d="M701.2,289.5l-1.3,2.4l3.4,6.5l0.1,5l0.6,1.4l4,0.1l2.3-2.2l1.6,1l0.3,3.1l1.3-0.8l0.1-3.9
		l-1.1-0.1l-0.7-3.3l-2.8-0.1l-0.7-1.9l1.7-2.3l0-1.1h-4.9L701.2,289.5L701.2,289.5z"/>
	<path id="burma" class="st1" d="M735.1,340.1l-2.8-4.4l2-2.8l-1.9-3.5l-1.8-0.3l-0.3-5.9l-2.7-5.2l-0.8,1.2l-1.8,3l-2.2,0.3
		l-1.1-1.5l-0.6-4l-1.7-3.2l-6.8-6.5l1.7-1.1l0.3-4.7l2.5-4.2l1.1-10.5l3.6-2.5l0.1-3.8l2.2,0.7l3.4,5l-2.5,5.4l1.7,4.3l4.2,1.7
		l0.8,4.6l5.7,0.9l-1.6,2.7l-7.2,2.8l-0.8,4.6l5.3,6.8l0.2,3.6l-1.2,1.2l0.1,1.1l3.9,5.8l0.1,6L735.1,340.1L735.1,340.1z"/>
	<path id="thailand" class="st1" d="M735.7,306.9l3.2,4.2v5.1l1.1,0.6l5.2-2.5l1,0.3l6.2,7.1l-0.2,4.9l-2-0.3l-1.8-1.1l-1.3,0.1
		l-2.3,3.9l0.5,2.1l1.9,1l-0.1,2.4l-1.3,0.7l-4.6-3.2v-2.8l-1.9-0.1l-0.8,1.2l-0.4,12.6l3,5.4l5.3,5.1l-0.2,1.5l-2.8-0.1l-2.6-3.8
		h-2.7l-3.4-2.7l-1-2.8l1.5-2.4l0.5-2.1l1.6-2.8l-0.1-6.4l-3.9-5.6l-0.2-0.7l1.3-1.3l-0.3-4.4l-5.1-6.5l0.6-3.8L735.7,306.9
		L735.7,306.9z"/>
	<path id="malaysia" class="st0" d="M738.3,351.9l2,4.5l0.5,5.9l2.7,4.2l6.5,3.9l2.5,0.2l-0.5-4.1l-2.1-5.2l-3.1-6.6l-0.3,1.2
		l-3.8-0.2l-2.7-3.9L738.3,351.9L738.3,351.9z"/>
	<path id="cambodia" class="st1" d="M746.1,335.9l4.1,4.4l7.6-5.6l0.7-8.9l-3.9,2.7l-2-1.1l-2.8-0.4l-1.5-1.1l-0.8,0l-2,3.3l0.3,1.5
		l2.1,1.1l-0.3,3.1L746.1,335.9L746.1,335.9z"/>
	<path id="laos" class="st1" d="M741.1,299.4l-2.4,1.2l-2,5.9l3.4,4.3l-0.6,4.7l0.6,0.2l5.6-2.7l7.5,8.4l-0.2,5.3l1.6,0.9l4-3.3
		l-0.3-2.6l-11.6-11l0.1-1.7l1.5-1l-1-2.8l-4.8-0.8L741.1,299.4L741.1,299.4z"/>
	<path id="vietnam" class="st0" d="M750.7,340.9l1.2,1.9l0.2,2.1l3.1,0.3l3.8-5.1l3.6-1l1.9-5.2l-0.9-8.3l-3.7-5.1l-3.9-3.1l-5-8.5
		l3.5-5.9l-5.1-5.8l-4.1-0.2l-3.7,2l1.1,4.7l4.9,0.9l1.3,3.6l-1.7,1.1l0.1,0.9l11.5,11.2l0.5,3.3l-0.7,10.4L750.7,340.9L750.7,340.9
		z"/>
	<path id="georgia" class="st1" d="M561.1,240.6l3.3,4.3l4.1,1.9l2.5,0l4.3-1.2l1.1-1.7l-12.8-4.8L561.1,240.6L561.1,240.6z"/>
	<path id="armenia" class="st1" d="M575.4,246.3l4.8,6.3l-1.4,1.6l-3.4-0.6l-4.2-3.8l0.2-2.5L575.4,246.3L575.4,246.3z"/>
	<path id="azerbaijan" class="st1" d="M577,244.2l-1,1.7l4.7,6.2l1.6-0.5l2.7,2.8l1.2-5l2.9,0.5l-0.1-1.4l-4.8-4.2l-0.9,2.5
		L577,244.2L577,244.2z"/>
	<path id="iran" class="st1" d="M575.3,254.4l-1.2,1.3l0.1,2l1.5,2.1l5.4,5.9l-0.8,2.4h-0.9l-0.5,2.4l3,3.9l2.8,0.2l5.6,7.8l3.2,0.2
		l2.5,1.8l0.1,3.5l9.7,5.7h3.6l2.2-1.9l2.8-0.1l1.6,3.8l10.5,1.5l0.3-3.9l3.5-1.3l0.2-1.4l-2.8-3.8l-6.2-5l3.2-3l-0.2-1.3l-4.1-0.6
		l-1.7-13.7l-0.2-3.1l-11-4.2l-4.9,1.1l-2.7,3.4l-2.4-0.2l-0.7,0.6l-5.4-0.4l-6.8-5l-2.5-2.8l-1.2,0.3l-2.1,2.4L575.3,254.4
		L575.3,254.4z"/>
	<path id="turkey" class="st1" d="M564.3,245.6l-2.2,2.4l-8.2-0.2l-4.9-2.9l-4.8-0.1l-5.5,3.9l-5.2,0.2l-0.5,2.9h-5.9l-2.3,2.1v1.2
		l1.4,1.2v1.3l-0.6,1.5l0.6,1.3l1.9-0.9l1.9,2l-0.5,1.4l-0.7,0.9l1,1.2l5.2,1.1l3.6-1.5v-2.2l1.8,0.4l4.2,2.5l4.6-0.7l2-1.9l1.3,0.5
		v2.1h1.8l1.5-3l13.4-1.4l5.8-0.7l-1.5-2l0-2.7l1.2-1.4l-4.3-3.4l0.2-2.9h-2.3L564.3,245.6L564.3,245.6z"/>
	<path id="yemen" class="st2" d="M577.6,325.7l1.4,4.3v4.2l3.5,3.1l24.4-9.9l0.2-2.7l-3.9-7l-9.8,3.1l-5.6,5.5l-6.5-3.9L577.6,325.7
		L577.6,325.7z"/>
	<path id="oman" class="st1" d="M604,317.3l7.4-4.3l1.3-6.3l-1.6-0.9l0.7-6.7l1.4-0.8l1.5,2.4l9,4.7v2.6l-10.9,16l-5,0.2L604,317.3
		L604,317.3z"/>
	<path id="emirates" class="st1" d="M599.6,301.4l0.9,3.5l9.9,0.9l0.7-7.1l1.9-1l0.5-2.6l-3.1,0.9l-3.5,5.2L599.6,301.4L599.6,301.4
		z"/>
	<path id="qatar" class="st1" d="M598.3,295.5l-0.5,4l1.5,1.2l1.4-0.1l0.5-5l-1.2-0.9L598.3,295.5L598.3,295.5z"/>
	<path id="kuwait" class="st1" d="M588.9,283.6l-2.3-1.2l-1.6,1.6l0.2,3.1l3.6,1.4L588.9,283.6L588.9,283.6z"/>
	<path id="saudi" class="st1" d="M589.6,289.7l7,9.8l2.3,1.8l1,4.4l10.8,0.9l1.2,0.6l-1.2,5.4l-7.1,4.2l-10.4,3.1l-5.5,5.4l-6.6-3.8
		l-4,3.5l-5.5-9.1l-3.8-1.7l-1.4-2.1v-4.5l-13.8-16.7l-0.5-3h4l4.8-4.2l0.2-2.1l-1.4-1.4l2.8-2.3l5.9,0.4l10,8.4l5.9-0.3l0.4,1.5
		L589.6,289.7L589.6,289.7z"/>
	<path id="syria" class="st1" d="M552.3,265.6l-0.3,2.5l2.8,1.2l-0.1,7l2.8-0.1l2.8-2.1l1.1-0.2l6.4-5.1l1.3-7.4l-12.8,1.3l-1.3,3
		L552.3,265.6L552.3,265.6z"/>
	<path id="iraq" class="st1" d="M569.9,261.5l-1.6,7.7l-6.5,5.4l0.4,2.5l6.3,0.4l10,8.2l5.6-0.2l0.2-1.9l2.1-2.2l2.9,1.6l0.4-0.4
		l-5.6-7.4l-2.6-0.2l-3.5-4.5l0.7-3.3l1.1-0.1l0.4-1.5l-4.8-5L569.9,261.5L569.9,261.5z"/>
	<path id="jordan" class="st1" d="M554.5,277.2l-2.5,8.6l-0.1,1.3h3.9l4.3-3.8l0.1-1.4l-1.8-1.8l3.2-2.6l-0.5-2.4l-0.9,0.2l-2.6,1.9
		L554.5,277.2L554.5,277.2z"/>
	<path id="lebanon" class="st1" d="M551.8,268.9l0.1,1.9l-0.8,3l2.8,0.2l0.2-4.2L551.8,268.9L551.8,268.9z"/>
	<path id="israel" class="st1" d="M551,274.5l-1.6,5l2,6l2.3-8.8v-1.9L551,274.5L551,274.5z"/>
	<path id="cyprus" class="st1" d="M548.8,266.3l1.2,0.9l-3.8,3.6l-1.8-0.1l-1.3-1l0.2-1.8l2.8-0.2L548.8,266.3L548.8,266.3z"/>
	<path id="norway" class="st1" d="M521.1,138.6l2-1.5l-0.2-1.7l-1.3-0.7l0.2-2h1.1v-1.1l-4.8-1.3L511,131l-0.7,3.1l-1.6-0.6
		l-1.1-1.8l-3.5,0.2l-0.4,3.5l-1.6,0.7l-0.9-1.9l-7.3,5.9l1.5,1.7l-2.8,1.3l-6.2,12.4L484,157l0.2,1.1l2.2,1.1l-0.5,2.4l-3.7-0.2
		l-1.1-1.3l-2.4,2.8l-1.5,1.1l-0.4,2.6l-1.3,0.7l-3.3,0.7l-1.6,5.2l1.1,8.5l1.3,3.9l1.5,1.5l3.3-0.2l4.8-4.6l1.8-3.1l0.5,4.6
		l3.1-5.5l0.2-15.5l2.5-1.6l0.8-8.6l7.7-11.1l3.7-1.3l1.6-2l5.5,1.3l2.8,1.7l0.9-4.6l4.6-2.8L521.1,138.6L521.1,138.6z"/>
	<path id="britain" class="st1" d="M451.8,185.5l-1.8,2.8l0.7,1.1h4.2v1.9l-1.1,1.5l0.7,3.9l2.4,4.6l1.8,4.3l2.9,1.1l1.3,2.2l-0.2,2
		l-1.8,1.1l-0.2,0.9l1.3,0.7l-1.1,1.5l-2.6,1.1l-5-0.6l-7.7,3.5l-2.6-1.3l7.3-4.3l-0.9-0.6l-3.9-0.4l2.4-3.5l0.4-3l3.1-0.4l-0.5-5.7
		l-3.7-0.2l-1.1-1.3l0.2-4.3l-2.2,0.2l2.2-7.4l4-3L451.8,185.5L451.8,185.5z"/>
	<path id="ulster" class="st1" d="M444.1,197.9l-3.3,0.4l-0.2,3l2.2,1.5l2.4-0.6l0.9-1.7L444.1,197.9L444.1,197.9z"/>
	<path id="ireland" class="st1" d="M445.1,203l-0.9,6l-8.1,3h-2.6l-1.8-1.3v-1.1l4-2.6l-1.1-2.2l0.2-3.1l3.5,0.2l1.6-3.8l-0.2,3.3
		l2.7,2.1L445.1,203L445.1,203z"/>
	<path id="sweden" class="st1" d="M503.4,141l2,1.8h3.7l2,3.9l0.5,6.6l-5,3.5v3.5l-3.5,4.8l-2,0.2l-2.8,4.6l0.2,4.4l4.8,3.5l-0.4,2
		l-1.8,2.8l-2.8,2.4l0.2,7.9l-4.2,1.5l-1.5,3.1h-2l-1.1-5.5l-4.6-7l3.8-6.3l0.3-15.6l2.6-1.4l0.6-8.9l7.4-10.6L503.4,141L503.4,141z
		"/>
	<path id="finland" class="st1" d="M512.4,153.4l2.1,0.9l1.3,2.4l-1.3,1.7l-6.4,7l-1.1,3.7l1.5,5.4l5,3.7l6.6-3.1l5.3-0.7l5-7.9
		l-3.7-8.7l-3.5-8.3l0.5-5.4l-2.2-0.4l-0.6-3.9l-3-4.8l-3.3,2.3l-1.3,5.3l-3.5-2.1l-4.8-1.2l-1.1,1.3l1.9,1.7l3.4-0.1l2.7,4.4
		L512.4,153.4L512.4,153.4z"/>
	<path id="path302" class="st1" d="M523.7,187.8l-6.8-1.1l0.1,3.8l6.3,3.9l2.6-0.8l-0.2-2.9L523.7,187.8L523.7,187.8z"/>
	<path id="hiumaa" class="st1" d="M512.4,184.1l-1.5-0.1l-0.9,0.9l0.6,1l1.5,0.1l0.8-1.2L512.4,184.1L512.4,184.1z"/>
	<path id="saaremaa" class="st1" d="M512.2,188.2l-1.5-0.1l-2.7,3.2v1.5l0.9,0.4l1.8,0.1l2.9-2.4l0.4-0.8L512.2,188.2L512.2,188.2z"
		/>
	<path id="lithuania" class="st1" d="M516.4,191.1l-2.1-0.1l-3,2.8h-2.5l0.1,3.5l-1.5,2.8l5.4,0.1l1.5-0.2l1.5,1.9l3.5-0.1l3.4-4.3
		l-0.2-2.6L516.4,191.1L516.4,191.1z"/>
	<path id="belarus" class="st1" d="M516.3,202.7l1.5,2.5l-0.6,2l0.1,1.6l0.5,1.9l3.1-1.8l3.8,0.1l2.7,1.1h6.8l2-4.8l1.2-1.8v-1.2
		l-4.3-6.1l-3.8-1.5l-3.1-0.4l-2.7,0.9l0.1,2.7l-3.8,4.7L516.3,202.7L516.3,202.7z"/>
	<path id="poland" class="st1" d="M517.1,211.2l0.8,1.6l0.2,1.7l-0.7,1.6l-1.6,3.1l-1.4,0.6l-1.8-0.8l-1,0.1l-2.5,1l-2.9-0.9
		l-4.7-3.3l-4.6-2.5l-1.9-2.8l-0.4-6.6l3.6-3.1l4.7-1.6l1.8-0.2l-0.7,1.4l0.5,0.6l7.9,0.1l1.7-0.1l2.8,4.3l-0.7,1.8l0.3,2.1
		L517.1,211.2L517.1,211.2z"/>
	<path id="spain" class="st1" d="M454,241.4h-12.7l-2.6-1.2l-1.2,0.1l-1.5,3.1l0.5,3.2l4.9,0.4l0.6,2.1l-2.1,12l0.1,2.1l3.5,1.9
		l4,0.3l8-2l3.9-4.9l0.1-5l6.9-6.2l0.4-2.8l-6.3-0.1L454,241.4L454,241.4z"/>
	<path id="portugal" class="st1" d="M436.6,247.7l-0.6,8.6l-1.8,1.6l0.2,1l1.2,2l-0.8,2.5l1.3,0.5l3.1-0.4L439,261l2-11.6l-0.4-1.6
		L436.6,247.7L436.6,247.7z"/>
	<path id="majorca" class="st1" d="M466.7,253.6l-1.6,0.5l0.4,1.4h2.3l1-1.1L466.7,253.6L466.7,253.6z"/>
	<path id="sardinia" class="st1" d="M483.2,249.8l-2.6,1.3l0.4,5.2l2.1,0.4l1.6-1.5v-4.9L483.2,249.8L483.2,249.8z"/>
	<path id="corsica" class="st1" d="M483.5,243.4l-2,2l-0.2,1.8l1.6,1l0.6-0.1l0.4-2.6L483.5,243.4L483.5,243.4z"/>
	<path id="france" class="st1" d="M466,215.1l-2.2,0.5l-4.4,4.8l-1.3,0.1l-1.8-1.3l-1.1,0.3l-0.9,2.8l-6.5,0.2l0.2,1.4l4.4,2.9
		l5.1,4.1l-0.1,4.9l-2.7,4.8l5.9,2.9l6,0.2l1.9-2.1l3.8,0.1l1.1,1l3.8-0.3l2-2.5l-2.5-2.9l-0.2-1.9l0.5-2.1l-1.2-1.8l-2.1,0.6
		l-0.3-1.6l4.7-5.2V222l-3.1-1.8l-1.6-0.3L466,215.1L466,215.1z"/>
	<path id="netherlands" class="st1" d="M475.7,204.7l-4.5,2.2l1,0.9l0.1,2.2l-1-0.2l-1.1-1.6l-2.5,4l3.9,0.8l1.5,1.5l0.8,0l0.5-3.5
		l2.5-1L475.7,204.7L475.7,204.7z"/>
	<path id="belgium" class="st1" d="M467.2,213l-0.6,1.6l6.9,4.5l2,0.5l0.1-2.1l-1.7-1.9h-1.1l-1.5-1.6L467.2,213L467.2,213z"/>
	<path id="germany" class="st1" d="M476.8,204.3l3.6-0.6v-2.5l3-0.5l1.6,1.6l1.7,0.2l2.7-1.2l2.4,0.7l2.1,1.8l0.3,6.9l2.1,2.8
		l-2.8,0.4l-4.6,2.9l0.4,1l4.1,3.9l-0.3,1.9l-3.9,1.9l-3.6,0.1l-0.9,1.8H483l-0.9-1.9l-3.2-0.8l-0.1-3.2l-2.7-1.8l0.3-2.3l-1.8-2.5
		l0.5-3.3l2.5-1.2L476.8,204.3L476.8,204.3z"/>
	<path id="denmark" class="st1" d="M482.4,187.9l-4.1,4.6l-0.1,3l1.9,4.9l3-0.6l-0.4-4l2-2.3l0-1.8l-1.4-3.7L482.4,187.9
		L482.4,187.9z"/>
	<path id="sjlland" class="st1" d="M487.1,196.1l-0.9,0l-1.2,1.1l0.1,1.8l2.9,0.1l0.1-2L487.1,196.1L487.1,196.1z"/>
	<path id="gotland" class="st1" d="M504.1,186.6l-2.1,1.7l1.1,2.4l1.9-1.8L504.1,186.6L504.1,186.6z"/>
	<path id="switzerland" class="st1" d="M478.5,225.8l-4.4,4.6l0.1,0.5l1.8-0.6l1.6,2.2l2.7-1l1.9,1.5l0.8-0.4l2.3-3.6l-0.6-0.6
		l-2.3-0.1l-1.1-2.3L478.5,225.8L478.5,225.8z"/>
	<path id="czech" class="st1" d="M494.1,221.3h3h1.5l2.4,1.7l4.4-3.6l-4.3-3l-4.2-2l-2.9,0.5l-3.9,2.5L494.1,221.3L494.1,221.3z"/>
	<path id="slovakia" class="st1" d="M501.5,223.6l0.7,0.6l0.1,1l7.6-0.2l5.6-2.4l-0.1-2.5l-1.1,0.5l-1.5-0.8l-1,0l-2.5,1l-3.4-0.8
		L501.5,223.6L501.5,223.6z"/>
	<path id="austria" class="st1" d="M486.3,226.6l-0.6,1.4l0.6,1l2.3-0.5h2l2.1,1.8l4.6-0.8l3.4-2l0.9-1.4l-0.1-1.7l-3-2.3l-4,0
		l-0.3,2.3l-4.3,2.1L486.3,226.6L486.3,226.6z"/>
	<path id="hungary" class="st1" d="M502.4,226l-1.2,1.8l0.1,2.8l1.9,0.9l5.7,0.2l7.9-6.7l0-1.5l-0.9-0.4l-5.7,2.6L502.4,226
		L502.4,226z"/>
	<path id="slovenia" class="st1" d="M500.4,228.4l-2.5,1.5l-4.7,1l1,2.7l3.3,0l3.1-2.6L500.4,228.4L500.4,228.4z"/>
	<path id="croatia" class="st1" d="M501.3,231.6l-3.5,2.9h-3.6l-0.4,2.5l1.6,0.4l0.8-1.2l1.3,1.1l1,3.6l7.1,3.3l0.7-0.8l-7.2-7.4
		l0.7-1.4l6.8-0.3l0.7-2.2l-4.4,0.1L501.3,231.6L501.3,231.6z"/>
	<path id="bosnia" class="st1" d="M500.4,235.4l-0.4,0.6l6.7,6.9l2.5-3.6l-0.1-1.4l-2.1-2.6L500.4,235.4L500.4,235.4z"/>
	<path id="italy" class="st1" d="M477.9,233.4l-0.6,1.6l0.2,1.7l2.4,2.8l3.8-0.1l8.3,9.6l5.2,1.5l3.1,2.9l0.7,6.6l1.6-1l1.4-3.6
		l-0.4-2.6l2.4-0.2l0.4-1.5l-6.9-3.3l-6.5-6.4l-2.6-3.8l-0.6-3.6l3.3-0.8l-0.9-2.4l-2-1.7l-1.8-0.1l-2.4,0.7l-2.3,3.2l-1.4,0.9
		l-2.1-1.3L477.9,233.4L477.9,233.4z"/>
	<path id="sicily" class="st1" d="M498.1,259.5l-1.5-0.8l-5,0.8l0.2,1.3l4.5,2.2l0.7,0.7l1.2,0.2L498.1,259.5L498.1,259.5z"/>
	<path id="malta" class="st1" d="M498.2,266.9l-1.7,0.3l0.1,1.9l1.5,0.5l0.7-0.6L498.2,266.9L498.2,266.9z"/>
	<path id="ukraine" class="st1" d="M521.2,209.6l-2.9,1.6l0.7,3.1l-2.7,5.6l0,2.5l1.3,0.8l8.1,0.4l2.3-1.9l2.4,0.8l3.5,4.6l-2.5,4.6
		l3,0.9l4-4.6l2.3,0.4l2.1,1.5l-1.8,2.4l2.5,3.9h2.7l1.4-2.6l2.8-0.6l0.1-2.1l-5.2-0.8l0.2-2.3h5.1l5.5-4.4l2.4-2.1l0.4-6.7l-10.8-1
		l-4.4-6.3l-3.1-1.1l-3.7,0.2l-1.7,4.1l-7.6,0.1l-2.5-1.1L521.2,209.6L521.2,209.6z"/>
	<path id="moldova" class="st1" d="M526.4,224.1l3.1,4.8l-0.3,2.7l1.1,0.1l2.6-4.4l-3.2-3.9l-1.8-0.7L526.4,224.1L526.4,224.1z"/>
	<path id="romania" class="st1" d="M517.8,224l-0.3,1.5l-5.8,4.8l4.8,7.1l3.1,2.2h5.6l1.8-1.5l2.5-0.3l1.8,1.1l3.3-3.7l-0.6-1.9
		l-3.3-0.9l-2.3-0.1l0.1-3.2l-3-4.7L517.8,224L517.8,224z"/>
	<path id="montenegro" class="st1" d="M510.5,243.7l0-0.9l-1.3-1.9l-2.1,3l0.4,1.3l1.7,0.3L510.5,243.7z"/>
	<path id="serbia" class="st1" d="M511.2,231l-2.1,1.5h-1l-0.7,2.1l2.4,2.8l0.2,2.2l-0.3,0.5l1.6,2.3l0.1,1.2l1.2,1.1l3.8-1.2
		l-0.3-5.5L511.2,231z	">
<desc  id="desc7821">includes kosovo</desc>
	</path>
	<path id="bulgaria" class="st1" d="M517.1,238.8l0.2,5l1.7,3.5l6.3,0.1l2.8-2l2.8-1.1l-0.7-3.2l0.6-1.7l-1.4-0.7l-2,0.2l-1.5,1.5
		l-6.4,0.1L517.1,238.8L517.1,238.8z"/>
	<path id="albania" class="st1" d="M509.7,246.2v4.6l1.3,2.5l1-0.1l1.6-3l-1-1.3l-0.4-3.3l-1.3-1.2L509.7,246.2L509.7,246.2z"/>
	<path id="macedonia" class="st1" d="M516.6,244.4l-3.4,1.1l0.2,2.9l0.8,1l4-1.9L516.6,244.4L516.6,244.4z"/>
	<path id="greece" class="st1" d="M512.3,254l-0.1,1.3l4.6,2.3l2.2,0.9l-1.2,1.2l-2.6,0.3l-0.4,1.2l0.9,2l2.9,1.5l1.3,0.1l0.2-3.4
		l1.9-2.3l-5.2-6.1l0.7-2.1l1.2-0.1l1.8,1.5l1.2-0.6l0.4-2.1l5.4,0.1l0.2-3.2l-2.3,1.6l-6.6-0.2l-4.3,2.2L512.3,254L512.3,254z"/>
	<path id="thrace" class="st1" d="M528.7,246.1l-0.2,3.6l3.1-0.9l1.4-0.9l-0.4-1.5l-1.5-1.2L528.7,246.1L528.7,246.1z"/>
	<path id="crete" class="st1" d="M522.4,267l1.6,0l0.7,1h2.4l1.6-0.6l0.5,0.6l-1,1.4l-4.6,0.2l-0.8-1.1l-0.9-0.5L522.4,267
		L522.4,267z"/>
</g>
<g id="Leyenda">
	<circle class="st0" cx="43.6" cy="548.1" r="6.9"/>
	<circle class="st3" cx="43.6" cy="575.7" r="6.9"/>
	<circle class="st2" cx="43.6" cy="520.6" r="6.9"/>
	<text transform="matrix(1 0 0 1 56.934 524.3252)" class="st4 st5 st6">Arbica</text>
	<text transform="matrix(1 0 0 1 56.9338 552.4435)" class="st4 st5 st6">Ambas</text>
	<text transform="matrix(1 0 0 1 56.934 580.2644)" class="st4 st5 st6">Robusta</text>
</g>
</svg>
