<?xml version="1.0" encoding="utf-8"?>
<!-- Generator: Adobe Illustrator 24.0.0, SVG Export Plug-In . SVG Version: 6.00 Build 0)  -->
<svg version="1.1" xmlns="http://www.w3.org/2000/svg" xmlns:xlink="http://www.w3.org/1999/xlink" x="0px" y="0px"
	 viewBox="0 0 850.4 566.9" style="enable-background:new 0 0 850.4 566.9;" xml:space="preserve">
<style type="text/css">
	.st0{display:none;}
	.st1{display:inline;}
	.st2{fill:#7C5337;stroke:#000000;stroke-width:1.2979;stroke-miterlimit:10;}
	.st3{fill:#AFAFAF;}
	.st4{fill:#7C5337;}
	.st5{fill:none;stroke:#000000;stroke-width:1.2979;stroke-miterlimit:10;}
	.st6{fill-rule:evenodd;clip-rule:evenodd;fill:#FFFFFF;}
	.st7{fill-rule:evenodd;clip-rule:evenodd;fill:#C8102E;}
	.st8{fill:#C8102E;}
	.st9{fill:#FFFFFF;}
	.st10{fill:#002F6C;}
	.st11{fill:#ED2939;}
	.st12{fill:#002664;}
	.st13{fill:#005293;}
	.st14{fill:#FECB00;}
	.st15{fill-rule:evenodd;clip-rule:evenodd;fill:#FF0000;}
</style>
<g id="Capa_2" class="st0">
	<rect x="0.5" class="st1" width="850.4" height="566.9"/>
</g>
<g id="Capa_1">
	<g>
		<g transform="translate(0.000000,839.000000) scale(0.100000,-0.100000)">
			<path class="st2" d="M1632.1,8146.5c0.2-0.7,0.4-4.8,0.6-9c1.2-27.3,6.1-79,11.3-118.1c9.7-72.4,22.1-131.6,36.8-175.7
				c10.7-32.2,23.1-56.7,35.6-70.2l2.4-2.6h148.4h148.4l3,3.2c12.3,13,25.3,39,36.1,71.9l4,12.3l3-0.4c1.7-0.2,9-0.4,16.3-0.4
				c15.3,0.1,21.6,0.8,34.9,4.2c10.7,2.7,17.2,5.1,28.2,10.5c14.1,6.8,25.8,15.1,37.3,26.3c37.9,36.7,52.9,90.5,39.3,141.2
				c-3.1,11.6-8.4,24.6-13.8,34c-22,37.8-56.7,62.8-99.7,71.6c-1.1,0.2-1.5,0.7-1.5,1.4c0,1.1-1.1,1.1-235.5,1.1h-235.5
				L1632.1,8146.5z M2105.3,8082.7c28.9-9.7,50.4-34.8,55.9-65.4c1.5-8.3,1.4-22.9-0.2-31.1c-4.8-24.2-19.1-44.5-40-57.1
				c-12.4-7.4-27.9-11.7-41.9-11.7h-5.5l2.9,14.6c8.1,40.9,16.2,96.1,20.5,140.9c1.1,10.7,1.2,11.6,2,11.6
				C2099.3,8084.6,2102.2,8083.8,2105.3,8082.7z"/>
			<path class="st2" d="M1522.4,7761.6c0-0.6,4.5-8.6,6.8-12.1c6.9-10.2,19-22.2,31.7-31.4c20-14.4,45.8-26.7,69.2-32.9l7.2-1.9
				h239.3h239.3l7.4,1.9c25.6,6.8,55.7,21.9,75.9,38.1c8.9,7.1,19.5,18.4,24.7,26.1c2.3,3.4,6.8,11.5,6.8,12.1
				c0,0.2-159.4,0.4-354.1,0.4S1522.4,7761.8,1522.4,7761.6z"/>
		</g>
	</g>
	<g>
		<g transform="translate(0.000000,839.000000) scale(0.100000,-0.100000)">
			<path class="st2" d="M2435.4,8148.4c0.2-0.7,0.4-4.8,0.6-9c1.2-27.3,6.1-79,11.3-118.1c9.7-72.4,22.1-131.6,36.8-175.7
				c10.7-32.2,23.1-56.7,35.6-70.2l2.4-2.6h148.4H2819l3,3.2c12.3,13,25.3,39,36.1,71.9l4,12.3l3-0.4c1.7-0.2,9-0.4,16.3-0.4
				c15.3,0.1,21.6,0.8,34.9,4.1c10.7,2.7,17.2,5.1,28.2,10.5c14.1,6.8,25.8,15.1,37.3,26.3c37.9,36.7,52.9,90.5,39.3,141.2
				c-3.1,11.6-8.4,24.6-13.8,34c-22,37.8-56.7,62.8-99.7,71.6c-1.1,0.2-1.5,0.7-1.5,1.4c0,1.1-1.1,1.1-235.5,1.1h-235.5
				L2435.4,8148.4z M2908.5,8084.7c28.9-9.7,50.4-34.8,55.9-65.4c1.5-8.3,1.4-22.9-0.2-31.1c-4.8-24.2-19.1-44.5-40-57.1
				c-12.4-7.4-27.9-11.7-41.9-11.7h-5.5l2.9,14.6c8.1,40.9,16.2,96.1,20.5,140.9c1.1,10.7,1.2,11.6,2,11.6
				C2902.6,8086.5,2905.4,8085.7,2908.5,8084.7z"/>
			<path class="st2" d="M2325.6,7763.5c0-0.6,4.5-8.6,6.8-12.1c6.9-10.2,19-22.2,31.7-31.4c20-14.4,45.8-26.7,69.2-32.9l7.2-1.9
				h239.3h239.3l7.4,1.9c25.6,6.8,55.7,21.9,75.9,38.1c8.9,7.1,19.5,18.4,24.7,26.1c2.3,3.4,6.8,11.5,6.8,12.1
				c0,0.2-159.4,0.4-354.1,0.4S2325.6,7763.8,2325.6,7763.5z"/>
		</g>
	</g>
	<g>
		<g transform="translate(0.000000,839.000000) scale(0.100000,-0.100000)">
			<path class="st2" d="M3238.6,8147.4c0.2-0.7,0.4-4.8,0.6-9c1.2-27.3,6.1-79,11.3-118.1c9.7-72.4,22.1-131.6,36.8-175.7
				c10.7-32.2,23.1-56.7,35.6-70.2l2.4-2.6h148.4h148.4l3,3.2c12.3,13,25.3,39,36.1,71.9l4,12.3l3-0.4c1.7-0.2,9-0.4,16.3-0.4
				c15.3,0.1,21.6,0.8,34.9,4.2c10.7,2.7,17.2,5.1,28.2,10.5c14.1,6.8,25.8,15.1,37.3,26.3c37.9,36.7,52.9,90.5,39.3,141.2
				c-3.1,11.6-8.4,24.6-13.8,34c-22,37.8-56.7,62.8-99.7,71.6c-1.1,0.2-1.5,0.7-1.5,1.4c0,1.1-1.1,1.1-235.5,1.1h-235.4
				L3238.6,8147.4z M3711.8,8083.7c28.9-9.7,50.4-34.8,55.9-65.4c1.5-8.3,1.4-22.9-0.2-31.1c-4.8-24.2-19.1-44.5-40-57.1
				c-12.4-7.4-27.9-11.7-41.9-11.7h-5.5l2.9,14.6c8.1,40.9,16.2,96.1,20.5,140.9c1.1,10.7,1.2,11.6,2,11.6
				C3705.8,8085.6,3708.7,8084.7,3711.8,8083.7z"/>
			<path class="st2" d="M3128.8,7762.6c0-0.6,4.5-8.6,6.8-12.1c6.9-10.2,19-22.2,31.7-31.4c20-14.4,45.8-26.7,69.2-32.9l7.2-1.9
				H3483h239.3l7.4,1.9c25.6,6.8,55.7,21.9,75.9,38.1c8.9,7.1,19.5,18.4,24.7,26.1c2.3,3.4,6.8,11.5,6.8,12.1
				c0,0.2-159.4,0.4-354.1,0.4S3128.8,7762.8,3128.8,7762.6z"/>
		</g>
	</g>
	<g>
		<g>
			<g transform="translate(0.000000,839.000000) scale(0.100000,-0.100000)">
				<path class="st3" d="M4041.8,8151.6c0.2-0.7,0.4-4.8,0.6-9c1.2-27.3,6.1-79,11.3-118.1c9.7-72.4,22.1-131.6,36.8-175.7
					c10.7-32.2,23.1-56.7,35.6-70.2l2.4-2.6h148.4h148.4l3,3.2c12.3,13,25.3,39,36.1,71.9l4,12.3l3-0.4c1.7-0.2,9-0.4,16.3-0.4
					c15.3,0.1,21.6,0.8,34.9,4.1c10.7,2.7,17.2,5.1,28.2,10.5c14.1,6.8,25.8,15.1,37.3,26.3c37.9,36.7,52.9,90.5,39.3,141.2
					c-3.1,11.6-8.4,24.6-13.8,34c-22,37.8-56.7,62.8-99.7,71.6c-1.1,0.2-1.5,0.7-1.5,1.4c0,1.1-1.1,1.1-235.5,1.1h-235.4
					L4041.8,8151.6z M4515,8087.9c28.9-9.7,50.4-34.8,55.9-65.4c1.5-8.3,1.4-22.9-0.2-31.1c-4.8-24.2-19.1-44.5-40-57.1
					c-12.4-7.4-27.9-11.7-41.9-11.7h-5.5l2.9,14.6c8.1,40.9,16.2,96.1,20.5,140.9c1.1,10.7,1.2,11.6,2,11.6
					C4509,8089.7,4511.9,8088.9,4515,8087.9z"/>
				<path class="st3" d="M3932.1,7766.7c0-0.6,4.5-8.6,6.8-12.1c6.9-10.2,19-22.2,31.7-31.4c20-14.4,45.8-26.7,69.2-32.9l7.2-1.9
					h239.3h239.3l7.4,1.9c25.6,6.8,55.7,21.9,75.9,38.1c8.9,7.1,19.5,18.4,24.7,26.1c2.3,3.4,6.8,11.5,6.8,12.1
					c0,0.2-159.4,0.4-354.1,0.4C4091.4,7767.1,3932.1,7767,3932.1,7766.7z"/>
			</g>
		</g>
		<g>
			<g transform="translate(0.000000,839.000000) scale(0.100000,-0.100000)">
				<path class="st4" d="M4451.6,7817.1 M4095.6,7846.6c8-18.7,22-58.8,30.6-68l2.4-2.6h148.4h148.4l3,3.2
					c7.7,8.1,23.6,48.7,31.1,65.5L4095.6,7846.6z"/>
				<path class="st4" d="M3932.1,7766.7c0-0.6,4.5-8.6,6.8-12.1c6.9-10.2,19-22.2,31.7-31.4c20-14.4,45.8-26.7,69.2-32.9l7.2-1.9
					h239.3h239.3l7.4,1.9c25.6,6.8,55.7,21.9,75.9,38.1c8.9,7.1,19.5,18.4,24.7,26.1c2.3,3.4,6.8,11.5,6.8,12.1
					c0,0.2-159.4,0.4-354.1,0.4C4091.4,7767.1,3932.1,7767,3932.1,7766.7z"/>
			</g>
		</g>
		<g transform="translate(0.000000,839.000000) scale(0.100000,-0.100000)">
			<path class="st5" d="M4041.8,8151.6c0.2-0.7,0.4-4.8,0.6-9c1.2-27.3,6.1-79,11.3-118.1c9.7-72.4,22.1-131.6,36.8-175.7
				c10.7-32.2,23.1-56.7,35.6-70.2l2.4-2.6h148.4h148.4l3,3.2c12.3,13,25.3,39,36.1,71.9l4,12.3l3-0.4c1.7-0.2,9-0.4,16.3-0.4
				c15.3,0.1,21.6,0.8,34.9,4.1c10.7,2.7,17.2,5.1,28.2,10.5c14.1,6.8,25.8,15.1,37.3,26.3c37.9,36.7,52.9,90.5,39.3,141.2
				c-3.1,11.6-8.4,24.6-13.8,34c-22,37.8-56.7,62.8-99.7,71.6c-1.1,0.2-1.5,0.7-1.5,1.4c0,1.1-1.1,1.1-235.5,1.1h-235.4
				L4041.8,8151.6z M4515,8087.9c28.9-9.7,50.4-34.8,55.9-65.4c1.5-8.3,1.4-22.9-0.2-31.1c-4.8-24.2-19.1-44.5-40-57.1
				c-12.4-7.4-27.9-11.7-41.9-11.7h-5.5l2.9,14.6c8.1,40.9,16.2,96.1,20.5,140.9c1.1,10.7,1.2,11.6,2,11.6
				C4509,8089.7,4511.9,8088.9,4515,8087.9z"/>
			<path class="st5" d="M3932.1,7766.7c0-0.6,4.5-8.6,6.8-12.1c6.9-10.2,19-22.2,31.7-31.4c20-14.4,45.8-26.7,69.2-32.9l7.2-1.9
				h239.3h239.3l7.4,1.9c25.6,6.8,55.7,21.9,75.9,38.1c8.9,7.1,19.5,18.4,24.7,26.1c2.3,3.4,6.8,11.5,6.8,12.1
				c0,0.2-159.4,0.4-354.1,0.4C4091.4,7767.1,3932.1,7767,3932.1,7766.7z"/>
		</g>
	</g>
	<g>
		<g transform="translate(0.000000,839.000000) scale(0.100000,-0.100000)">
			<path class="st2" d="M1632.1,7178.2c0.2-0.7,0.4-4.8,0.6-9c1.2-27.3,6.1-79,11.3-118.1c9.7-72.4,22.1-131.6,36.8-175.7
				c10.7-32.2,23.1-56.7,35.6-70.2l2.4-2.6h148.4h148.4l3,3.2c12.3,13,25.3,39,36.1,71.9l4,12.3l3-0.4c1.7-0.2,9-0.4,16.3-0.4
				c15.3,0.1,21.6,0.8,34.9,4.1c10.7,2.7,17.2,5.1,28.2,10.5c14.1,6.8,25.8,15.1,37.3,26.3c37.9,36.7,52.9,90.5,39.3,141.2
				c-3.1,11.6-8.4,24.6-13.8,34c-22,37.8-56.7,62.8-99.7,71.6c-1.1,0.2-1.5,0.7-1.5,1.4c0,1.1-1.1,1.1-235.5,1.1h-235.5
				L1632.1,7178.2z M2105.3,7114.4c28.9-9.7,50.4-34.8,55.9-65.4c1.5-8.3,1.4-22.9-0.2-31.1c-4.8-24.2-19.1-44.5-40-57.1
				c-12.4-7.4-27.9-11.7-41.9-11.7h-5.5l2.9,14.6c8.1,40.9,16.2,96.1,20.5,140.9c1.1,10.7,1.2,11.6,2,11.6
				C2099.3,7116.3,2102.2,7115.5,2105.3,7114.4z"/>
			<path class="st2" d="M1522.3,6793.3c0-0.6,4.5-8.6,6.8-12.1c6.9-10.2,19-22.2,31.7-31.4c20-14.4,45.8-26.7,69.2-32.9l7.2-1.9
				h239.3h239.3l7.4,1.9c25.6,6.8,55.7,21.9,75.9,38.1c8.9,7.1,19.5,18.4,24.7,26.1c2.3,3.4,6.8,11.5,6.8,12.1
				c0,0.2-159.4,0.4-354.1,0.4S1522.3,6793.5,1522.3,6793.3z"/>
		</g>
	</g>
	<g>
		<g transform="translate(0.000000,839.000000) scale(0.100000,-0.100000)">
			<path class="st2" d="M2435.4,7180.1c0.2-0.7,0.4-4.8,0.6-9c1.2-27.3,6.1-79,11.3-118.1c9.7-72.4,22.1-131.6,36.8-175.7
				c10.7-32.2,23.1-56.7,35.6-70.2l2.4-2.6h148.4H2819l3,3.2c12.3,13,25.3,39,36.1,71.9l4,12.3l3-0.4c1.7-0.2,9-0.4,16.3-0.4
				c15.3,0.1,21.6,0.8,34.9,4.2c10.7,2.7,17.2,5.1,28.2,10.5c14.1,6.8,25.8,15.1,37.3,26.3c37.9,36.7,52.9,90.5,39.3,141.2
				c-3.1,11.6-8.4,24.6-13.8,34c-22,37.8-56.7,62.8-99.7,71.6c-1.1,0.2-1.5,0.7-1.5,1.4c0,1.1-1.1,1.1-235.5,1.1h-235.5
				L2435.4,7180.1z M2908.5,7116.4c28.9-9.7,50.4-34.8,55.9-65.4c1.5-8.3,1.4-22.9-0.2-31.1c-4.8-24.2-19.1-44.5-40-57.1
				c-12.4-7.4-27.9-11.7-41.9-11.7h-5.5l2.9,14.6c8.1,40.9,16.2,96.1,20.5,140.9c1.1,10.7,1.2,11.6,2,11.6
				C2902.6,7118.2,2905.4,7117.4,2908.5,7116.4z"/>
			<path class="st2" d="M2325.6,6795.3c0-0.6,4.5-8.6,6.8-12.1c6.9-10.2,19-22.2,31.7-31.4c20-14.4,45.8-26.7,69.2-32.9l7.2-1.9
				h239.3h239.3l7.4,1.9c25.6,6.8,55.7,21.9,75.9,38.1c8.9,7.1,19.5,18.4,24.7,26.1c2.3,3.4,6.8,11.5,6.8,12.1
				c0,0.2-159.4,0.4-354.1,0.4C2484.9,6795.6,2325.6,6795.5,2325.6,6795.3z"/>
		</g>
	</g>
	<g>
		<g>
			<g transform="translate(0.000000,839.000000) scale(0.100000,-0.100000)">
				<path class="st3" d="M3238.6,7178.2c0.2-0.7,0.4-4.8,0.6-9c1.2-27.3,6.1-79,11.3-118.1c9.7-72.4,22.1-131.6,36.8-175.7
					c10.7-32.2,23.1-56.7,35.6-70.2l2.4-2.6h148.4h148.4l3,3.2c12.3,13,25.3,39,36.1,71.9l4,12.3l3-0.4c1.7-0.2,9-0.4,16.3-0.4
					c15.3,0.1,21.6,0.8,34.9,4.1c10.7,2.7,17.2,5.1,28.2,10.5c14.1,6.8,25.8,15.1,37.3,26.3c37.9,36.7,52.9,90.5,39.3,141.2
					c-3.1,11.6-8.4,24.6-13.8,34c-22,37.8-56.7,62.8-99.7,71.6c-1.1,0.2-1.5,0.7-1.5,1.4c0,1.1-1.1,1.1-235.5,1.1h-235.4
					L3238.6,7178.2z M3711.8,7114.4c28.9-9.7,50.4-34.8,55.9-65.4c1.5-8.3,1.4-22.9-0.2-31.1c-4.8-24.2-19.1-44.5-40-57.1
					c-12.4-7.4-27.9-11.7-41.9-11.7h-5.5l2.9,14.6c8.1,40.9,16.2,96.1,20.5,140.9c1.1,10.7,1.2,11.6,2,11.6
					C3705.8,7116.3,3708.7,7115.5,3711.8,7114.4z"/>
				<path class="st3" d="M3128.8,6793.3c0-0.6,4.5-8.6,6.8-12.1c6.9-10.2,19-22.2,31.7-31.4c20-14.4,45.8-26.7,69.2-32.9l7.2-1.9
					H3483h239.3l7.4,1.9c25.6,6.8,55.7,21.9,75.9,38.1c8.9,7.1,19.5,18.4,24.7,26.1c2.3,3.4,6.8,11.5,6.8,12.1
					c0,0.2-159.4,0.4-354.1,0.4S3128.8,6793.5,3128.8,6793.3z"/>
			</g>
		</g>
		<polygon class="st4" points="367.5,143.2 366.2,149.4 368.9,149.8 372.9,148.9 376.9,147 380.4,143.1 368.7,143.6 		"/>
		<g>
			<g transform="translate(0.000000,839.000000) scale(0.100000,-0.100000)">
				<path class="st4" d="M3648.3,6843.7 M3269.3,6958c2.4-23.1,40-147.6,53.7-152.9l2.4-2.6h148.4h148.4l3,3.2
					c15.3,3.6,50.5,130.5,49.5,152.2H3269.3z"/>
				<path class="st4" d="M3128.8,6793.3c0-0.6,4.5-8.6,6.8-12.1c6.9-10.2,19-22.2,31.7-31.4c20-14.4,45.8-26.7,69.2-32.9l7.2-1.9
					H3483h239.3l7.4,1.9c25.6,6.8,55.7,21.9,75.9,38.1c8.9,7.1,19.5,18.4,24.7,26.1c2.3,3.4,6.8,11.5,6.8,12.1
					c0,0.2-159.4,0.4-354.1,0.4S3128.8,6793.5,3128.8,6793.3z"/>
			</g>
		</g>
		<g transform="translate(0.000000,839.000000) scale(0.100000,-0.100000)">
			<path class="st5" d="M3238.6,7178.2c0.2-0.7,0.4-4.8,0.6-9c1.2-27.3,6.1-79,11.3-118.1c9.7-72.4,22.1-131.6,36.8-175.7
				c10.7-32.2,23.1-56.7,35.6-70.2l2.4-2.6h148.4h148.4l3,3.2c12.3,13,25.3,39,36.1,71.9l4,12.3l3-0.4c1.7-0.2,9-0.4,16.3-0.4
				c15.3,0.1,21.6,0.8,34.9,4.1c10.7,2.7,17.2,5.1,28.2,10.5c14.1,6.8,25.8,15.1,37.3,26.3c37.9,36.7,52.9,90.5,39.3,141.2
				c-3.1,11.6-8.4,24.6-13.8,34c-22,37.8-56.7,62.8-99.7,71.6c-1.1,0.2-1.5,0.7-1.5,1.4c0,1.1-1.1,1.1-235.5,1.1h-235.4
				L3238.6,7178.2z M3711.8,7114.4c28.9-9.7,50.4-34.8,55.9-65.4c1.5-8.3,1.4-22.9-0.2-31.1c-4.8-24.2-19.1-44.5-40-57.1
				c-12.4-7.4-27.9-11.7-41.9-11.7h-5.5l2.9,14.6c8.1,40.9,16.2,96.1,20.5,140.9c1.1,10.7,1.2,11.6,2,11.6
				C3705.8,7116.3,3708.7,7115.5,3711.8,7114.4z"/>
			<path class="st5" d="M3128.8,6793.3c0-0.6,4.5-8.6,6.8-12.1c6.9-10.2,19-22.2,31.7-31.4c20-14.4,45.8-26.7,69.2-32.9l7.2-1.9
				H3483h239.3l7.4,1.9c25.6,6.8,55.7,21.9,75.9,38.1c8.9,7.1,19.5,18.4,24.7,26.1c2.3,3.4,6.8,11.5,6.8,12.1
				c0,0.2-159.4,0.4-354.1,0.4S3128.8,6793.5,3128.8,6793.3z"/>
		</g>
	</g>
	<g>
		<g transform="translate(0.000000,839.000000) scale(0.100000,-0.100000)">
			<path class="st2" d="M1637.7,6207c0.2-0.7,0.4-4.8,0.6-9c1.2-27.3,6.1-79,11.3-118.1c9.7-72.4,22.1-131.6,36.8-175.7
				c10.7-32.2,23.1-56.7,35.6-70.2l2.4-2.6H1873h148.4l3,3.2c12.3,13,25.3,39,36.1,71.9l4,12.3l3-0.4c1.7-0.2,9-0.4,16.3-0.4
				c15.3,0.1,21.6,0.8,34.9,4.2c10.7,2.7,17.2,5.1,28.2,10.5c14.1,6.8,25.8,15.1,37.3,26.3c37.9,36.7,52.9,90.5,39.3,141.2
				c-3.1,11.6-8.4,24.6-13.8,34c-22,37.8-56.7,62.8-99.7,71.6c-1.1,0.2-1.5,0.7-1.5,1.4c0,1.1-1.1,1.1-235.5,1.1h-235.5L1637.7,6207
				z M2110.9,6143.2c28.9-9.7,50.4-34.8,55.9-65.4c1.5-8.3,1.4-22.9-0.2-31.1c-4.8-24.2-19.1-44.5-40-57.1
				c-12.4-7.4-27.9-11.7-41.9-11.7h-5.5l2.9,14.6c8.1,40.9,16.2,96.1,20.5,140.9c1.1,10.7,1.2,11.6,2,11.6
				C2104.9,6145.1,2107.8,6144.3,2110.9,6143.2z"/>
			<path class="st2" d="M1527.9,5822.1c0-0.6,4.5-8.6,6.8-12.1c6.9-10.2,19-22.2,31.7-31.4c20-14.4,45.8-26.7,69.2-32.9l7.2-1.9
				h239.3h239.3l7.4,1.9c25.6,6.8,55.7,21.9,75.9,38.1c8.9,7.1,19.5,18.4,24.7,26.1c2.3,3.4,6.8,11.5,6.8,12.1
				c0,0.2-159.4,0.4-354.1,0.4S1527.9,5822.3,1527.9,5822.1z"/>
		</g>
	</g>
	<g>
		<g transform="translate(0.000000,839.000000) scale(0.100000,-0.100000)">
			<path class="st2" d="M2441,6208.9c0.2-0.7,0.4-4.8,0.6-9c1.2-27.3,6.1-79,11.3-118.1c9.7-72.4,22.1-131.6,36.8-175.7
				c10.7-32.2,23.1-56.7,35.6-70.2l2.4-2.6h148.4h148.4l3,3.2c12.3,13,25.3,39,36.1,71.9l4,12.3l3-0.4c1.7-0.2,9-0.4,16.3-0.4
				c15.3,0.1,21.6,0.8,34.9,4.1c10.7,2.7,17.2,5.1,28.2,10.5c14.1,6.8,25.8,15.1,37.3,26.3c37.9,36.7,52.9,90.5,39.3,141.2
				c-3.1,11.6-8.4,24.6-13.8,34c-22,37.8-56.7,62.8-99.7,71.6c-1.1,0.2-1.5,0.7-1.5,1.4c0,1.1-1.1,1.1-235.5,1.1h-235.5L2441,6208.9
				z M2914.1,6145.2c28.9-9.7,50.4-34.8,55.9-65.4c1.5-8.3,1.4-22.9-0.2-31.1c-4.8-24.2-19.1-44.5-40-57.1
				c-12.4-7.4-27.9-11.7-41.9-11.7h-5.5l2.9,14.6c8.1,40.9,16.2,96.1,20.5,140.9c1.1,10.7,1.2,11.6,2,11.6
				C2908.2,6147,2911,6146.2,2914.1,6145.2z"/>
			<path class="st2" d="M2331.2,5824.1c0-0.6,4.5-8.6,6.8-12.1c6.9-10.2,19-22.2,31.7-31.4c20-14.4,45.8-26.7,69.2-32.9l7.2-1.9
				h239.3h239.3l7.4,1.9c25.6,6.8,55.7,21.9,75.9,38.1c8.9,7.1,19.5,18.4,24.7,26.1c2.3,3.4,6.8,11.5,6.8,12.1
				c0,0.2-159.4,0.4-354.1,0.4S2331.2,5824.3,2331.2,5824.1z"/>
		</g>
	</g>
	<g>
		<g>
			<g transform="translate(0.000000,839.000000) scale(0.100000,-0.100000)">
				<path class="st3" d="M3244.2,6207c0.2-0.7,0.4-4.8,0.6-9c1.2-27.3,6.1-79,11.3-118.1c9.7-72.4,22.1-131.6,36.8-175.7
					c10.7-32.2,23.1-56.7,35.6-70.2l2.4-2.6h148.4h148.4l3,3.2c12.3,13,25.3,39,36.1,71.9l4,12.3l3-0.4c1.7-0.2,9-0.4,16.3-0.4
					c15.3,0.1,21.6,0.8,34.9,4.2c10.7,2.7,17.2,5.1,28.2,10.5c14.1,6.8,25.8,15.1,37.3,26.3c37.9,36.7,52.9,90.5,39.3,141.2
					c-3.1,11.6-8.4,24.6-13.8,34c-22,37.8-56.7,62.8-99.7,71.6c-1.1,0.2-1.5,0.7-1.5,1.4c0,1.1-1.1,1.1-235.5,1.1H3244L3244.2,6207z
					 M3717.4,6143.2c28.9-9.7,50.4-34.8,55.9-65.4c1.5-8.3,1.4-22.9-0.2-31.1c-4.8-24.2-19.1-44.5-40-57.1
					c-12.4-7.4-27.9-11.7-41.9-11.7h-5.5l2.9,14.6c8.1,40.9,16.2,96.1,20.5,140.9c1.1,10.7,1.2,11.6,2,11.6
					C3711.4,6145.1,3714.3,6144.3,3717.4,6143.2z"/>
				<path class="st3" d="M3134.4,5822.1c0-0.6,4.5-8.6,6.8-12.1c6.9-10.2,19-22.2,31.7-31.4c20-14.4,45.8-26.7,69.2-32.9l7.2-1.9
					h239.3h239.3l7.4,1.9c25.6,6.8,55.7,21.9,75.9,38.1c8.9,7.1,19.5,18.4,24.7,26.1c2.3,3.4,6.8,11.5,6.8,12.1
					c0,0.2-159.4,0.4-354.1,0.4C3293.8,5822.5,3134.4,5822.3,3134.4,5822.1z"/>
			</g>
		</g>
		<polygon class="st4" points="368,240.3 366.8,246.5 369.5,246.9 373.4,246 377.4,244.1 381,240.2 369.3,240.8 		"/>
		<g>
			<g transform="translate(0.000000,839.000000) scale(0.100000,-0.100000)">
				<path class="st4" d="M3653.9,5872.5 M3274.9,5986.8c2.3-23.1,40-147.6,53.7-152.9l2.4-2.6h148.4h148.4l3,3.2
					c15.3,3.6,50.5,130.5,49.5,152.2H3274.9z"/>
				<path class="st4" d="M3134.4,5822.1c0-0.6,4.5-8.6,6.8-12.1c6.9-10.2,19-22.2,31.7-31.4c20-14.4,45.8-26.7,69.2-32.9l7.2-1.9
					h239.3h239.3l7.4,1.9c25.6,6.8,55.7,21.9,75.9,38.1c8.9,7.1,19.5,18.4,24.7,26.1c2.3,3.4,6.8,11.5,6.8,12.1
					c0,0.2-159.4,0.4-354.1,0.4C3293.8,5822.5,3134.4,5822.3,3134.4,5822.1z"/>
			</g>
		</g>
		<g transform="translate(0.000000,839.000000) scale(0.100000,-0.100000)">
			<path class="st5" d="M3244.2,6207c0.2-0.7,0.4-4.8,0.6-9c1.2-27.3,6.1-79,11.3-118.1c9.7-72.4,22.1-131.6,36.8-175.7
				c10.7-32.2,23.1-56.7,35.6-70.2l2.4-2.6h148.4h148.4l3,3.2c12.3,13,25.3,39,36.1,71.9l4,12.3l3-0.4c1.7-0.2,9-0.4,16.3-0.4
				c15.3,0.1,21.6,0.8,34.9,4.2c10.7,2.7,17.2,5.1,28.2,10.5c14.1,6.8,25.8,15.1,37.3,26.3c37.9,36.7,52.9,90.5,39.3,141.2
				c-3.1,11.6-8.4,24.6-13.8,34c-22,37.8-56.7,62.8-99.7,71.6c-1.1,0.2-1.5,0.7-1.5,1.4c0,1.1-1.1,1.1-235.5,1.1H3244L3244.2,6207z
				 M3717.4,6143.2c28.9-9.7,50.4-34.8,55.9-65.4c1.5-8.3,1.4-22.9-0.2-31.1c-4.8-24.2-19.1-44.5-40-57.1
				c-12.4-7.4-27.9-11.7-41.9-11.7h-5.5l2.9,14.6c8.1,40.9,16.2,96.1,20.5,140.9c1.1,10.7,1.2,11.6,2,11.6
				C3711.4,6145.1,3714.3,6144.3,3717.4,6143.2z"/>
			<path class="st5" d="M3134.4,5822.1c0-0.6,4.5-8.6,6.8-12.1c6.9-10.2,19-22.2,31.7-31.4c20-14.4,45.8-26.7,69.2-32.9l7.2-1.9
				h239.3h239.3l7.4,1.9c25.6,6.8,55.7,21.9,75.9,38.1c8.9,7.1,19.5,18.4,24.7,26.1c2.3,3.4,6.8,11.5,6.8,12.1
				c0,0.2-159.4,0.4-354.1,0.4C3293.8,5822.5,3134.4,5822.3,3134.4,5822.1z"/>
		</g>
	</g>
	<g>
		<g transform="translate(0.000000,839.000000) scale(0.100000,-0.100000)">
			<path class="st2" d="M1630.3,5233.8c0.2-0.7,0.4-4.8,0.6-9c1.2-27.3,6.1-79,11.3-118.1c9.7-72.4,22.1-131.6,36.8-175.7
				c10.7-32.2,23.1-56.7,35.6-70.2l2.4-2.6h148.4H2014l3,3.2c12.3,13,25.3,39,36.1,71.9l4,12.3l3-0.4c1.7-0.2,9-0.4,16.3-0.4
				c15.3,0.1,21.6,0.8,34.9,4.1c10.7,2.7,17.2,5.1,28.2,10.5c14.1,6.8,25.8,15.1,37.3,26.3c37.9,36.7,52.9,90.5,39.3,141.2
				c-3.1,11.6-8.4,24.6-13.8,34c-22,37.8-56.7,62.8-99.7,71.6c-1.1,0.2-1.5,0.7-1.5,1.4c0,1.1-1.1,1.1-235.5,1.1h-235.5
				L1630.3,5233.8z M2103.5,5170.1c28.9-9.7,50.4-34.8,55.9-65.4c1.5-8.3,1.4-22.9-0.2-31.1c-4.8-24.2-19.1-44.5-40-57.1
				c-12.4-7.4-27.9-11.7-41.9-11.7h-5.5l2.9,14.6c8.1,40.9,16.2,96.1,20.5,140.9c1.1,10.7,1.2,11.6,2,11.6
				C2097.5,5172,2100.4,5171.2,2103.5,5170.1z"/>
			<path class="st2" d="M1520.6,4849c0-0.6,4.5-8.6,6.8-12.1c6.9-10.2,19-22.2,31.7-31.4c20-14.4,45.8-26.7,69.2-32.9l7.2-1.9h239.3
				H2114l7.4,1.9c25.6,6.8,55.7,21.9,75.9,38.1c8.9,7.1,19.5,18.4,24.7,26.1c2.3,3.4,6.8,11.5,6.8,12.1c0,0.2-159.4,0.4-354.1,0.4
				S1520.6,4849.2,1520.6,4849z"/>
		</g>
	</g>
	<g>
		<g transform="translate(0.000000,839.000000) scale(0.100000,-0.100000)">
			<path class="st2" d="M2433.6,5235.8c0.2-0.7,0.4-4.8,0.6-9c1.2-27.3,6.1-79,11.3-118.1c9.7-72.4,22.1-131.6,36.8-175.7
				c10.7-32.2,23.1-56.7,35.6-70.2l2.4-2.6h148.4h148.4l3,3.2c12.3,13,25.3,39,36.1,71.9l4,12.3l3-0.4c1.7-0.2,9-0.4,16.3-0.4
				c15.3,0.1,21.6,0.8,34.9,4.2c10.7,2.7,17.2,5.1,28.2,10.5c14.1,6.8,25.8,15.1,37.3,26.3c37.9,36.7,52.9,90.5,39.3,141.2
				c-3.1,11.6-8.4,24.6-13.8,34c-22,37.8-56.7,62.8-99.7,71.6c-1.1,0.2-1.5,0.7-1.5,1.4c0,1.1-1.1,1.1-235.5,1.1h-235.5
				L2433.6,5235.8z M2906.7,5172c28.9-9.7,50.4-34.8,55.9-65.4c1.5-8.3,1.4-22.9-0.2-31.1c-4.8-24.2-19.1-44.5-40-57.1
				c-12.4-7.4-27.9-11.7-41.9-11.7h-5.5l2.9,14.6c8.1,40.9,16.2,96.1,20.5,140.9c1.1,10.7,1.2,11.6,2,11.6
				C2900.8,5173.9,2903.6,5173.1,2906.7,5172z"/>
			<path class="st2" d="M2323.8,4850.9c0-0.6,4.5-8.6,6.8-12.1c6.9-10.2,19-22.2,31.7-31.4c20-14.4,45.8-26.7,69.2-32.9l7.2-1.9
				h239.3h239.3l7.4,1.9c25.6,6.8,55.7,21.9,75.9,38.1c8.9,7.1,19.5,18.4,24.7,26.1c2.3,3.4,6.8,11.5,6.8,12.1
				c0,0.2-159.4,0.4-354.1,0.4S2323.8,4851.1,2323.8,4850.9z"/>
		</g>
	</g>
	<g>
		<g>
			<g transform="translate(0.000000,839.000000) scale(0.100000,-0.100000)">
				<path class="st3" d="M3236.8,5233.8c0.2-0.7,0.4-4.8,0.6-9c1.2-27.3,6.1-79,11.3-118.1c9.7-72.4,22.1-131.6,36.8-175.7
					c10.7-32.2,23.1-56.7,35.6-70.2l2.4-2.6H3472h148.4l3,3.2c12.3,13,25.3,39,36.1,71.9l4,12.3l3-0.4c1.7-0.2,9-0.4,16.3-0.4
					c15.3,0.1,21.6,0.8,34.9,4.1c10.7,2.7,17.2,5.1,28.2,10.5c14.1,6.8,25.8,15.1,37.3,26.3c37.9,36.7,52.9,90.5,39.3,141.2
					c-3.1,11.6-8.4,24.6-13.8,34c-22,37.8-56.7,62.8-99.7,71.6c-1.1,0.2-1.5,0.7-1.5,1.4c0,1.1-1.1,1.1-235.5,1.1h-235.5
					L3236.8,5233.8z M3710,5170.1c28.9-9.7,50.4-34.8,55.9-65.4c1.5-8.3,1.4-22.9-0.2-31.1c-4.8-24.2-19.1-44.5-40-57.1
					c-12.4-7.4-27.9-11.7-41.9-11.7h-5.5l2.9,14.6c8.1,40.9,16.2,96.1,20.5,140.9c1.1,10.7,1.2,11.6,2,11.6
					C3704,5172,3706.9,5171.2,3710,5170.1z"/>
				<path class="st3" d="M3127,4849c0-0.6,4.5-8.6,6.8-12.1c6.9-10.2,19-22.2,31.7-31.4c20-14.4,45.8-26.7,69.2-32.9l7.2-1.9h239.3
					h239.3l7.4,1.9c25.6,6.8,55.7,21.9,75.9,38.1c8.9,7.1,19.5,18.4,24.7,26.1c2.3,3.4,6.8,11.5,6.8,12.1c0,0.2-159.4,0.4-354.1,0.4
					C3286.4,4849.4,3127,4849.2,3127,4849z"/>
			</g>
		</g>
		<polygon class="st4" points="367.3,337.6 366,343.9 368.7,344.2 372.7,343.4 376.7,341.4 380.3,337.5 368.5,338.1 		"/>
		<g>
			<g transform="translate(0.000000,839.000000) scale(0.100000,-0.100000)">
				<path class="st4" d="M3646.5,4899.4 M3267.5,5013.7c2.3-23.1,40-147.6,53.7-152.9l2.4-2.6H3472h148.4l3,3.2
					c15.3,3.6,50.5,130.5,49.5,152.2H3267.5z"/>
				<path class="st4" d="M3127,4849c0-0.6,4.5-8.6,6.8-12.1c6.9-10.2,19-22.2,31.7-31.4c20-14.4,45.8-26.7,69.2-32.9l7.2-1.9h239.3
					h239.3l7.4,1.9c25.6,6.8,55.7,21.9,75.9,38.1c8.9,7.1,19.5,18.4,24.7,26.1c2.3,3.4,6.8,11.5,6.8,12.1c0,0.2-159.4,0.4-354.1,0.4
					C3286.4,4849.4,3127,4849.2,3127,4849z"/>
			</g>
		</g>
		<g transform="translate(0.000000,839.000000) scale(0.100000,-0.100000)">
			<path class="st5" d="M3236.8,5233.8c0.2-0.7,0.4-4.8,0.6-9c1.2-27.3,6.1-79,11.3-118.1c9.7-72.4,22.1-131.6,36.8-175.7
				c10.7-32.2,23.1-56.7,35.6-70.2l2.4-2.6H3472h148.4l3,3.2c12.3,13,25.3,39,36.1,71.9l4,12.3l3-0.4c1.7-0.2,9-0.4,16.3-0.4
				c15.3,0.1,21.6,0.8,34.9,4.1c10.7,2.7,17.2,5.1,28.2,10.5c14.1,6.8,25.8,15.1,37.3,26.3c37.9,36.7,52.9,90.5,39.3,141.2
				c-3.1,11.6-8.4,24.6-13.8,34c-22,37.8-56.7,62.8-99.7,71.6c-1.1,0.2-1.5,0.7-1.5,1.4c0,1.1-1.1,1.1-235.5,1.1h-235.5
				L3236.8,5233.8z M3710,5170.1c28.9-9.7,50.4-34.8,55.9-65.4c1.5-8.3,1.4-22.9-0.2-31.1c-4.8-24.2-19.1-44.5-40-57.1
				c-12.4-7.4-27.9-11.7-41.9-11.7h-5.5l2.9,14.6c8.1,40.9,16.2,96.1,20.5,140.9c1.1,10.7,1.2,11.6,2,11.6
				C3704,5172,3706.9,5171.2,3710,5170.1z"/>
			<path class="st5" d="M3127,4849c0-0.6,4.5-8.6,6.8-12.1c6.9-10.2,19-22.2,31.7-31.4c20-14.4,45.8-26.7,69.2-32.9l7.2-1.9h239.3
				h239.3l7.4,1.9c25.6,6.8,55.7,21.9,75.9,38.1c8.9,7.1,19.5,18.4,24.7,26.1c2.3,3.4,6.8,11.5,6.8,12.1c0,0.2-159.4,0.4-354.1,0.4
				C3286.4,4849.4,3127,4849.2,3127,4849z"/>
		</g>
	</g>
	<g>
		<g transform="translate(0.000000,839.000000) scale(0.100000,-0.100000)">
			<path class="st2" d="M1630.1,4258.8c0.2-0.7,0.4-4.8,0.6-9c1.2-27.3,6.1-79,11.3-118.1c9.7-72.4,22.1-131.6,36.8-175.7
				c10.7-32.2,23.1-56.7,35.6-70.2l2.4-2.6h148.4h148.4l3,3.2c12.3,13,25.3,39,36.1,71.9l4,12.3l3-0.4c1.7-0.2,9-0.4,16.3-0.4
				c15.3,0.1,21.6,0.8,34.9,4.2c10.7,2.7,17.2,5.1,28.2,10.5c14.1,6.8,25.8,15.1,37.3,26.3c37.9,36.7,52.9,90.5,39.3,141.2
				c-3.1,11.6-8.4,24.6-13.8,34c-22,37.8-56.7,62.8-99.7,71.6c-1.1,0.2-1.5,0.7-1.5,1.4c0,1.1-1.1,1.1-235.5,1.1h-235.5
				L1630.1,4258.8z M2103.3,4195c28.9-9.7,50.4-34.8,55.9-65.4c1.5-8.3,1.4-22.9-0.2-31.1c-4.8-24.2-19.1-44.5-40-57.1
				c-12.4-7.4-27.9-11.7-41.9-11.7h-5.5l2.9,14.6c8.1,40.9,16.2,96.1,20.5,140.9c1.1,10.7,1.2,11.6,2,11.6
				C2097.3,4196.9,2100.2,4196.1,2103.3,4195z"/>
			<path class="st2" d="M1520.3,3873.9c0-0.6,4.5-8.6,6.8-12.1c6.9-10.2,19-22.2,31.7-31.4c20-14.4,45.8-26.7,69.2-32.9l7.2-1.9
				h239.3h239.3l7.4,1.9c25.6,6.8,55.7,21.9,75.9,38.1c8.9,7.1,19.5,18.4,24.7,26.1c2.3,3.4,6.8,11.5,6.8,12.1
				c0,0.2-159.4,0.4-354.1,0.4S1520.3,3874.1,1520.3,3873.9z"/>
		</g>
	</g>
	<g>
		<g transform="translate(0.000000,839.000000) scale(0.100000,-0.100000)">
			<path class="st2" d="M2433.4,4260.7c0.2-0.7,0.4-4.8,0.6-9c1.2-27.3,6.1-79,11.3-118.1c9.7-72.4,22.1-131.6,36.8-175.7
				c10.7-32.2,23.1-56.7,35.6-70.2l2.4-2.6h148.4H2817l3,3.2c12.3,13,25.3,39,36.1,71.9l4,12.3l3-0.4c1.7-0.2,9-0.4,16.3-0.4
				c15.3,0.1,21.6,0.8,34.9,4.2c10.7,2.7,17.2,5.1,28.2,10.5c14.1,6.8,25.8,15.1,37.3,26.3c37.9,36.7,52.9,90.5,39.3,141.2
				c-3.1,11.6-8.4,24.6-13.8,34c-22,37.8-56.7,62.8-99.7,71.6c-1.1,0.2-1.5,0.7-1.5,1.4c0,1.1-1.1,1.1-235.5,1.1h-235.4
				L2433.4,4260.7z M2906.5,4197c28.9-9.7,50.4-34.8,55.9-65.4c1.5-8.3,1.4-22.9-0.2-31.1c-4.8-24.2-19.1-44.5-40-57.1
				c-12.4-7.4-27.9-11.7-41.9-11.7h-5.5l2.9,14.6c8.1,40.9,16.2,96.1,20.5,140.9c1.1,10.7,1.2,11.6,2,11.6
				C2900.6,4198.9,2903.4,4198,2906.5,4197z"/>
			<path class="st2" d="M2323.6,3875.9c0-0.6,4.5-8.6,6.8-12.1c6.9-10.2,19-22.2,31.7-31.4c20-14.4,45.8-26.7,69.2-32.9l7.2-1.9
				h239.3h239.3l7.4,1.9c25.6,6.8,55.7,21.9,75.9,38.1c8.9,7.1,19.5,18.4,24.7,26.1c2.3,3.4,6.8,11.5,6.8,12.1
				c0,0.2-159.4,0.4-354.1,0.4S2323.6,3876.1,2323.6,3875.9z"/>
		</g>
	</g>
	<g>
		<g>
			<g transform="translate(0.000000,839.000000) scale(0.100000,-0.100000)">
				<path class="st3" d="M3261.7,4260.7c0.2-0.7,0.4-4.8,0.6-9c1.2-27.3,6.1-79,11.3-118.1c9.7-72.4,22.1-131.6,36.8-175.7
					c10.7-32.2,23.1-56.7,35.6-70.2l2.4-2.6H3497h148.4l3,3.2c12.3,13,25.3,39,36.1,71.9l4,12.3l3-0.4c1.7-0.2,9-0.4,16.3-0.4
					c15.3,0.1,21.6,0.8,34.9,4.2c10.7,2.7,17.2,5.1,28.2,10.5c14.1,6.8,25.8,15.1,37.3,26.3c37.9,36.7,52.9,90.5,39.3,141.2
					c-3.1,11.6-8.4,24.6-13.8,34c-22,37.8-56.7,62.8-99.7,71.6c-1.1,0.2-1.5,0.7-1.5,1.4c0,1.1-1.1,1.1-235.5,1.1h-235.5
					L3261.7,4260.7z M3734.9,4197c28.9-9.7,50.4-34.8,55.9-65.4c1.5-8.3,1.4-22.9-0.2-31.1c-4.8-24.2-19.1-44.5-40-57.1
					c-12.4-7.4-27.9-11.7-41.9-11.7h-5.5l2.9,14.6c8.1,40.9,16.2,96.1,20.5,140.9c1.1,10.7,1.2,11.6,2,11.6
					C3728.9,4198.9,3731.8,4198,3734.9,4197z"/>
				<path class="st3" d="M3151.9,3875.9c0-0.6,4.5-8.6,6.8-12.1c6.9-10.2,19-22.2,31.7-31.4c20-14.4,45.8-26.7,69.2-32.9l7.2-1.9
					h239.3h239.3l7.4,1.9c25.6,6.8,55.7,21.9,75.9,38.1c8.9,7.1,19.5,18.4,24.7,26.1c2.3,3.4,6.8,11.5,6.8,12.1
					c0,0.2-159.4,0.4-354.1,0.4C3311.3,3876.2,3151.9,3876.1,3151.9,3875.9z"/>
			</g>
		</g>
		<g>
			<g transform="translate(0.000000,839.000000) scale(0.100000,-0.100000)">
				<path class="st4" d="M3671.4,3926.3 M3315.5,3955.7c8-18.7,22-58.8,30.6-68l2.4-2.6H3497h148.4l3,3.2
					c7.7,8.1,23.6,48.7,31.1,65.5L3315.5,3955.7z"/>
				<path class="st4" d="M3151.9,3875.9c0-0.6,4.5-8.6,6.8-12.1c6.9-10.2,19-22.2,31.7-31.4c20-14.4,45.8-26.7,69.2-32.9l7.2-1.9
					h239.3h239.3l7.4,1.9c25.6,6.8,55.7,21.9,75.9,38.1c8.9,7.1,19.5,18.4,24.7,26.1c2.3,3.4,6.8,11.5,6.8,12.1
					c0,0.2-159.4,0.4-354.1,0.4C3311.3,3876.2,3151.9,3876.1,3151.9,3875.9z"/>
			</g>
		</g>
		<g transform="translate(0.000000,839.000000) scale(0.100000,-0.100000)">
			<path class="st5" d="M3261.7,4260.7c0.2-0.7,0.4-4.8,0.6-9c1.2-27.3,6.1-79,11.3-118.1c9.7-72.4,22.1-131.6,36.8-175.7
				c10.7-32.2,23.1-56.7,35.6-70.2l2.4-2.6H3497h148.4l3,3.2c12.3,13,25.3,39,36.1,71.9l4,12.3l3-0.4c1.7-0.2,9-0.4,16.3-0.4
				c15.3,0.1,21.6,0.8,34.9,4.2c10.7,2.7,17.2,5.1,28.2,10.5c14.1,6.8,25.8,15.1,37.3,26.3c37.9,36.7,52.9,90.5,39.3,141.2
				c-3.1,11.6-8.4,24.6-13.8,34c-22,37.8-56.7,62.8-99.7,71.6c-1.1,0.2-1.5,0.7-1.5,1.4c0,1.1-1.1,1.1-235.5,1.1h-235.5
				L3261.7,4260.7z M3734.9,4197c28.9-9.7,50.4-34.8,55.9-65.4c1.5-8.3,1.4-22.9-0.2-31.1c-4.8-24.2-19.1-44.5-40-57.1
				c-12.4-7.4-27.9-11.7-41.9-11.7h-5.5l2.9,14.6c8.1,40.9,16.2,96.1,20.5,140.9c1.1,10.7,1.2,11.6,2,11.6
				C3728.9,4198.9,3731.8,4198,3734.9,4197z"/>
			<path class="st5" d="M3151.9,3875.9c0-0.6,4.5-8.6,6.8-12.1c6.9-10.2,19-22.2,31.7-31.4c20-14.4,45.8-26.7,69.2-32.9l7.2-1.9
				h239.3h239.3l7.4,1.9c25.6,6.8,55.7,21.9,75.9,38.1c8.9,7.1,19.5,18.4,24.7,26.1c2.3,3.4,6.8,11.5,6.8,12.1
				c0,0.2-159.4,0.4-354.1,0.4C3311.3,3876.2,3151.9,3876.1,3151.9,3875.9z"/>
		</g>
	</g>
	<g>
		<g transform="translate(0.000000,839.000000) scale(0.100000,-0.100000)">
			<path class="st2" d="M1643.7,3438.9c0.2-0.7,0.4-4.8,0.6-9c1.2-27.3,6.1-79,11.3-118.1c9.7-72.4,22.1-131.6,36.8-175.7
				c10.7-32.2,23.1-56.7,35.6-70.2l2.4-2.6H1879h148.4l3,3.2c12.3,13,25.3,39,36.1,71.9l4,12.3l3-0.4c1.7-0.2,9-0.4,16.3-0.4
				c15.3,0.1,21.6,0.8,34.9,4.2c10.7,2.7,17.2,5.1,28.2,10.5c14.1,6.8,25.8,15.1,37.3,26.3c37.9,36.7,52.9,90.5,39.3,141.2
				c-3.1,11.6-8.4,24.6-13.8,34c-22,37.8-56.7,62.8-99.7,71.6c-1.1,0.2-1.5,0.7-1.5,1.4c0,1.1-1.1,1.1-235.5,1.1h-235.5
				L1643.7,3438.9z M2116.9,3375.2c28.9-9.7,50.4-34.8,55.9-65.4c1.5-8.3,1.4-22.9-0.2-31.1c-4.8-24.2-19.1-44.5-40-57.1
				c-12.4-7.4-27.9-11.7-41.9-11.7h-5.5l2.9,14.6c8.1,40.9,16.2,96.1,20.5,140.9c1.1,10.7,1.2,11.6,2,11.6
				C2110.9,3377,2113.8,3376.2,2116.9,3375.2z"/>
			<path class="st2" d="M1534,3054.1c0-0.6,4.5-8.6,6.8-12.1c6.9-10.2,19-22.2,31.7-31.4c20-14.4,45.8-26.7,69.2-32.9l7.2-1.9h239.3
				h239.3l7.4,1.9c25.6,6.8,55.7,21.9,75.9,38.1c8.9,7.1,19.5,18.4,24.7,26.1c2.3,3.4,6.8,11.5,6.8,12.1c0,0.2-159.4,0.4-354.1,0.4
				S1534,3054.3,1534,3054.1z"/>
		</g>
	</g>
	<g>
		<g transform="translate(0.000000,839.000000) scale(0.100000,-0.100000)">
			<path class="st2" d="M2447,3440.8c0.2-0.7,0.4-4.8,0.6-9c1.2-27.3,6.1-79,11.3-118.1c9.7-72.4,22.1-131.6,36.8-175.7
				c10.7-32.2,23.1-56.7,35.6-70.2l2.4-2.6h148.4h148.4l3,3.2c12.3,13,25.3,39,36.1,71.9l4,12.3l3-0.4c1.7-0.2,9-0.4,16.3-0.4
				c15.3,0.1,21.6,0.8,34.9,4.2c10.7,2.7,17.2,5.1,28.2,10.5c14.1,6.8,25.8,15.1,37.3,26.3c37.9,36.7,52.9,90.5,39.3,141.2
				c-3.1,11.6-8.4,24.6-13.8,34c-22,37.8-56.7,62.8-99.7,71.6c-1.1,0.2-1.5,0.7-1.5,1.4c0,1.1-1.1,1.1-235.4,1.1h-235.5L2447,3440.8
				z M2920.1,3377.1c28.9-9.7,50.4-34.8,55.9-65.4c1.5-8.3,1.4-22.9-0.2-31.1c-4.8-24.2-19.1-44.5-40-57.1
				c-12.4-7.4-27.9-11.7-41.9-11.7h-5.5l2.9,14.6c8.1,40.9,16.2,96.1,20.5,140.9c1.1,10.7,1.2,11.6,2,11.6
				C2914.2,3379,2917,3378.1,2920.1,3377.1z"/>
			<path class="st2" d="M2337.2,3056c0-0.6,4.5-8.6,6.8-12.1c6.9-10.2,19-22.2,31.7-31.4c20-14.4,45.8-26.7,69.2-32.9l7.2-1.9h239.3
				h239.3l7.4,1.9c25.6,6.8,55.7,21.9,75.9,38.1c8.9,7.1,19.5,18.4,24.7,26.1c2.3,3.4,6.8,11.5,6.8,12.1c0,0.2-159.4,0.4-354.1,0.4
				S2337.2,3056.2,2337.2,3056z"/>
		</g>
	</g>
	<g>
		<g>
			<path class="st6" d="M94.5,262.1H36v-43.9h58.5V262.1z"/>
			<path class="st7" d="M94.5,262.1H36v-14.6h58.5V262.1z M94.5,232.9H36v-14.6h58.5V232.9z"/>
		</g>
	</g>
	<g>
		<path class="st8" d="M36.2,318h58.3v43.7H36.2V318z"/>
		<path class="st9" d="M54.9,318h6.3v43.7h-6.3L54.9,318z"/>
		<path class="st9" d="M36.2,336.7h58.3v6.3H36.2V336.7z"/>
	</g>
	<g>
		<path class="st9" d="M36.1,24.8h58.4v43.8H36.1V24.8z"/>
		<path class="st10" d="M36.1,40.8h58.4v12H36.1V40.8z"/>
		<path class="st10" d="M52.1,24.8h12v43.8h-12L52.1,24.8z"/>
	</g>
	<g>
		<path class="st11" d="M36.2,121.2h58.3v43.7H36.2V121.2z"/>
		<path class="st9" d="M52.6,121.2h10.9v43.7H52.6V121.2z"/>
		<path class="st9" d="M36.2,137.6h58.3v10.9H36.2V137.6z"/>
		<path class="st12" d="M55.3,121.2h5.5v43.7h-5.5V121.2z"/>
		<path class="st12" d="M36.2,140.3h58.3v5.5H36.2V140.3z"/>
	</g>
	<g>
		<path class="st13" d="M36.2,498.1h58.3v43.8H36.2V498.1z"/>
		<path class="st14" d="M52.2,498.1v17.5h-16v8.8h16v17.5H61v-17.5h33.5v-8.8H61v-17.5H52.2z"/>
	</g>
	<g>
		<g>
			<path class="st15" d="M36,413.2h60.3v45.2H36V413.2z"/>
			<g>
				<path class="st6" d="M52,431.6h28.3v8.5H52V431.6z"/>
				<path class="st6" d="M61.9,421.7h8.5V450h-8.5V421.7z"/>
			</g>
		</g>
	</g>
</g>
</svg>
