<?xml version="1.0" encoding="utf-8"?>
<!-- Generator: Adobe Illustrator 24.0.0, SVG Export Plug-In . SVG Version: 6.00 Build 0)  -->
<svg version="1.1" id="Capa_1" xmlns="http://www.w3.org/2000/svg" xmlns:xlink="http://www.w3.org/1999/xlink" x="0px" y="0px"
	 viewBox="0 0 805 600" style="enable-background:new 0 0 805 600;" xml:space="preserve">
<style type="text/css">
	.st0{fill:#A16338;}
	.st1{fill:#D7A964;}
	.st2{fill:#875532;}
	.st3{fill:#BF9155;}
	.st4{fill:#724628;}
	.st5{fill:#9B7950;}
	.st6{fill:#FFFFFF;}
	.st7{font-family:'Arial-BoldItalicMT';}
	.st8{font-size:10px;}
	.st9{enable-background:new    ;}
</style>
<g id="viz" transform="translate(402.5,300)">
	<path class="st0" d="M1-143c79,0.6,142.5,65,142,144C142.4,80,78,143.5-1,143c-42.8-0.3-83.2-19.8-110.2-53.1l55.1-44
		c25.4,31,71.1,35.5,102,10.1S81.4-15,56.1-46C42.5-62.5,22.4-72.2,1-72.5V-143z	">
<title>Arábica</title>
	</path>
	<path class="st1" d="M-112.4,88.4c-48.8-62.1-38-152,24-200.8C-63.4-132-32.7-142.8-1-143v70.5C-41-71.9-73-39-72.5,1
		c0.2,15.7,5.5,31,15.2,43.4L-112.4,88.4z	">
<title>Robusta</title>
	</path>
	<path class="st2" d="M1-215.5C120-214.9,216-118,215.5,1c-0.2,48.1-16.6,94.8-46.4,132.6l-55.1-44c49.5-63,38.6-154.1-24.4-203.6
		C64.3-133.9,33.2-144.8,1-145V-215.5z	">
<title>América</title>
	</path>
	<path class="st2" d="M167.9,135.1C116.4,199.1,33.1,228.2-47,210.3l15.7-68.7c53.7,11.9,109.5-7.7,144-50.4L167.9,135.1z	">
<title>África</title>
	</path>
	<path class="st2" d="M-48.9,209.9c-46.9-10.9-88.7-37.2-118.9-74.7l55.1-44c20.2,25,48.2,42.6,79.5,50L-48.9,209.9z	">
<title>Asia</title>
	</path>
	<path class="st3" d="M-169.1,133.6c-9.6-12.1-17.8-25.3-24.6-39.2l63.5-30.6c4.5,9.1,9.9,17.8,16.2,25.8L-169.1,133.6z	">
<title>América</title>
	</path>
	<path class="st3" d="M-194.6,92.6c-27.9-58.6-27.9-126.6,0-185.2l63.5,30.6c-18.6,39.3-18.6,84.8,0,124L-194.6,92.6z	">
<title>África</title>
	</path>
	<path class="st3" d="M-193.7-94.4C-157.8-168.2-83.1-215.1-1-215.5v70.5c-55,0.4-105,31.8-129.2,81.2L-193.7-94.4z	">
<title>Asia</title>
	</path>
	<path class="st4" d="M1-288c20.9,0.1,41.7,2.4,62.1,7l-15.7,68.7c-15.2-3.4-30.8-5.2-46.4-5.2V-288z	">
<title>Colombia</title>
	</path>
	<path class="st4" d="M65.1-280.6c20.4,4.7,40.1,11.6,59,20.6l-30.6,63.5c-14.1-6.7-28.9-11.9-44.1-15.4L65.1-280.6z	">
<title>Costa Rica</title>
	</path>
	<path class="st4" d="M125.9-259c18.8,9.1,36.5,20.3,52.9,33.3l-44,55.1c-12.3-9.7-25.5-18-39.6-24.9L125.9-259z	">
<title>Ecuador</title>
	</path>
	<path class="st4" d="M180.3-224.5c16.3,13.1,31.1,27.9,44.2,44.2l-55.1,44c-9.8-12.2-20.9-23.2-33-33L180.3-224.5z	">
<title>El Salvador</title>
	</path>
	<path class="st4" d="M225.8-178.8c13,16.4,24.1,34.1,33.3,52.9l-63.5,30.6c-6.8-14-15.2-27.3-24.9-39.6L225.8-178.8z	">
<title>Guatemala</title>
	</path>
	<path class="st4" d="M259.9-124.1c9,18.9,15.9,38.6,20.6,59l-68.7,15.7c-3.5-15.2-8.7-30-15.4-44.1L259.9-124.1z	">
<title>Jamaica</title>
	</path>
	<path class="st4" d="M281-63.1c4.6,20.4,6.9,41.2,7,62.1h-70.5c-0.1-15.6-1.8-31.2-5.2-46.4L281-63.1z	">
<title>Nicaragua</title>
	</path>
	<path class="st4" d="M288,1c-0.1,20.9-2.4,41.7-7,62.1l-68.7-15.7c3.4-15.2,5.2-30.8,5.2-46.4H288z	">
<title>Panamá</title>
	</path>
	<path class="st4" d="M280.6,65.1c-4.7,20.4-11.6,40.1-20.6,59l-63.5-30.6c6.7-14.1,11.9-28.9,15.4-44.1L280.6,65.1z	">
<title>Perú</title>
	</path>
	<path class="st4" d="M259,125.9c-9.1,18.8-20.3,36.5-33.3,52.9l-55.1-44c9.7-12.3,18-25.5,24.9-39.6L259,125.9z	">
<title>Venezuela</title>
	</path>
	<path class="st4" d="M224.5,180.3c-13.1,16.3-27.9,31.1-44.2,44.2l-44-55.1c12.2-9.8,23.2-20.9,33-33L224.5,180.3z	">
<title>Etiopía</title>
	</path>
	<path class="st4" d="M178.8,225.8c-16.4,13-34.1,24.1-52.9,33.3l-30.6-63.5c14-6.8,27.3-15.2,39.6-24.9L178.8,225.8z	">
<title>Kenia</title>
	</path>
	<path class="st4" d="M124.1,259.9c-18.9,9-38.6,15.9-59,20.6l-15.7-68.7c15.2-3.5,30-8.7,44.1-15.4L124.1,259.9z	">
<title>Mozambique</title>
	</path>
	<path class="st4" d="M63.1,281c-20.4,4.6-41.2,6.9-62.1,7v-70.5c15.6-0.1,31.2-1.8,46.4-5.2L63.1,281z	">
<title>Tanzania</title>
	</path>
	<path class="st4" d="M-1,288c-20.9-0.1-41.7-2.4-62.1-7l15.7-68.7c15.2,3.4,30.8,5.2,46.4,5.2V288z	">
<title>Zambia</title>
	</path>
	<path class="st4" d="M-65.1,280.6c-20.4-4.7-40.1-11.6-59-20.6l30.6-63.5c14.1,6.7,28.9,11.9,44.1,15.4L-65.1,280.6z	">
<title>India</title>
	</path>
	<path class="st4" d="M-125.9,259c-18.8-9.1-36.5-20.3-52.9-33.3l44-55.1c12.3,9.7,25.5,18,39.6,24.9L-125.9,259z	">
<title>Indonesia</title>
	</path>
	<path class="st4" d="M-180.3,224.5c-16.3-13.1-31.1-27.9-44.2-44.2l55.1-44c9.8,12.2,20.9,23.2,33,33L-180.3,224.5z	">
<title>Yemen</title>
	</path>
	<path class="st5" d="M-225.8,178.8c-13-16.4-24.1-34.1-33.3-52.9l63.5-30.6c6.8,14,15.2,27.3,24.9,39.6L-225.8,178.8z	">
<title>Brasil</title>
	</path>
	<path class="st5" d="M-259.9,124.1c-9-18.9-15.9-38.6-20.6-59l68.7-15.7c3.5,15.2,8.7,30,15.4,44.1L-259.9,124.1z	">
<title>Angola</title>
	</path>
	<path class="st5" d="M-281,63.1c-4.6-20.4-6.9-41.2-7-62.1h70.5c0.1,15.6,1.8,31.2,5.2,46.4L-281,63.1z	">
<title>Camerún</title>
	</path>
	<path class="st5" d="M-288-1c0.1-20.9,2.4-41.7,7-62.1l68.7,15.7c-3.4,15.2-5.2,30.8-5.2,46.4H-288z	">
<title>Costa de Marfil</title>
	</path>
	<path class="st5" d="M-280.6-65.1c4.7-20.4,11.6-40.1,20.6-59l63.5,30.6c-6.7,14.1-11.9,28.9-15.4,44.1L-280.6-65.1z	">
<title>Uganda</title>
	</path>
	<path class="st5" d="M-259-125.9c9.1-18.8,20.3-36.5,33.3-52.9l55.1,44c-9.7,12.3-18,25.5-24.9,39.6L-259-125.9z	">
<title>India</title>
	</path>
	<path class="st5" d="M-224.5-180.3c13.1-16.3,27.9-31.1,44.2-44.2l44,55.1c-12.2,9.8-23.2,20.9-33,33L-224.5-180.3z	">
<title>Java</title>
	</path>
	<path class="st5" d="M-178.8-225.8c16.4-13,34.1-24.1,52.9-33.3l30.6,63.5c-14,6.8-27.3,15.2-39.6,24.9L-178.8-225.8z	">
<title>Sri Lanka</title>
	</path>
	<path class="st5" d="M-124.1-259.9c18.9-9,38.6-15.9,59-20.6l15.7,68.7c-15.2,3.5-30,8.7-44.1,15.4L-124.1-259.9z	">
<title>Sumatra</title>
	</path>
	<path class="st5" d="M-63.1-281c20.4-4.6,41.2-6.9,62.1-7v70.5c-15.6,0.1-31.2,1.8-46.4,5.2L-63.1-281z	">
<title>Vietnam</title>
	</path>
</g>
<g id="labels" transform="translate(402.5,300)">
	<text transform="matrix(0.901 0.4339 -0.4339 0.901 80.9709 43.7699)" class="st6 st7 st8">Arábica</text>
	<text transform="matrix(0.901 0.4339 -0.4339 0.901 -116.4941 -51.3243)" class="st6 st7 st8">Robusta</text>
	<text transform="matrix(0.901 -0.4339 0.4339 0.901 148.515 -66.7443)" class="st6 st7 st8">América</text>
	<text transform="matrix(0.3303 0.9439 -0.9439 0.3303 51.8668 160.6734)" class="st6 st7 st8">África</text>
	<text transform="matrix(0.532 -0.8467 0.8467 0.532 -98.2186 164.169)" class="st6 st7 st8">Asia</text>
	<text transform="matrix(0.8467 -0.532 0.532 0.8467 -166.867 109.9107)" class="st6 st7 st8">América</text>
	<text transform="matrix(1 0 0 1 -194.0305 4.3369)" class="st6 st7 st8">África</text>
	<text transform="matrix(0.532 0.8467 -0.8467 0.532 -104.9928 -159.2393)" class="st6 st7 st8">Asia</text>
	<text transform="matrix(0.112 -0.9937 0.9937 0.112 30.0213 -230.3816)" class="st6 st7 st8">Colombia</text>
	<text transform="matrix(0.3303 -0.9439 0.9439 0.3303 79.5078 -214.7718)" class="st6 st7 st8">Costa Rica</text>
	<text transform="matrix(0.532 -0.8467 0.8467 0.532 128.4822 -196.623)" class="st6 st7 st8">Ecuador</text>
	<text transform="matrix(0.7071 -0.7071 0.7071 0.7071 164.1772 -158.1833)" class="st6 st7 st8">El Salvador</text>
	<text transform="matrix(0.8467 -0.532 0.532 0.8467 196.2753 -118.267)" class="st6 st7 st8">Guatemala</text>
	<text transform="matrix(0.9439 -0.3303 0.3303 0.9439 223.2584 -73.5467)" class="st6 st7 st8">Jamaica</text>
	<text transform="matrix(0.9937 -0.112 0.112 0.9937 229.9553 -21.5475)" class="st6 st7 st8">Nicaragua</text>
	<text transform="matrix(0.9937 0.112 -0.112 0.9937 233.2009 30.6376)" class="st6 st7 st8">Panamá</text>
	<text transform="matrix(0.9439 0.3303 -0.3303 0.9439 228.2208 84.4326)" class="st6 st7 st8">Perú</text>
	<text transform="matrix(0.8467 0.532 -0.532 0.8467 192.8774 126.2537)" class="st6 st7 st8">Venezuela</text>
	<text transform="matrix(0.7071 0.7071 -0.7071 0.7071 165.5925 171.5866)" class="st6 st7 st8">Etiopía</text>
	<text transform="matrix(0.532 0.8467 -0.8467 0.532 124.8124 206.4933)" class="st6 st7 st8">Kenia</text>
	<text transform="matrix(0.3303 0.9439 -0.9439 0.3303 69.6617 211.1685)" class="st6 st7 st8">Mozambique</text>
	<text transform="matrix(0.112 0.9937 -0.9937 0.112 22.1843 232.9558)" class="st6 st7 st8">Tanzania</text>
	<text transform="matrix(0.112 -0.9937 0.9937 0.112 -26.3026 269.5071)" class="st6 st7 st8">Zambia</text>
	<text transform="matrix(0.3303 -0.9439 0.9439 0.3303 -83.6135 251.402)" class="st6 st7 st8">India</text>
	<text transform="matrix(0.532 -0.8467 0.8467 0.532 -143.1529 235.6817)" class="st6 st7 st8">Indonesia</text>
	<text transform="matrix(0.7071 -0.7071 0.7071 0.7071 -187.6067 193.6009)" class="st6 st7 st8">Yemen</text>
	<text transform="matrix(0.8467 -0.532 0.532 0.8467 -223.3141 145.3785)" class="st6 st7 st8">Brasil</text>
	<text transform="matrix(0.9439 -0.3303 0.3303 0.9439 -252.8842 93.0629)" class="st6 st7 st8">Angola</text>
	<text transform="matrix(0.9937 -0.112 0.112 0.9937 -272.1411 35.0252)" class="st6 st7 st8">Camerún</text>
	<text transform="matrix(0.9937 0.112 -0.112 0.9937 -275.16 -32.0549)" class="st9"><tspan x="0" y="0" class="st6 st7 st8">Costa de </tspan><tspan x="0" y="12" class="st6 st7 st8">   Marfil</tspan></text>
	<text transform="matrix(0.9439 0.3303 -0.3303 0.9439 -257.363 -85.4805)" class="st6 st7 st8">Uganda</text>
	<text transform="matrix(0.8467 0.532 -0.532 0.8467 -226.1641 -137.0478)" class="st6 st7 st8">India</text>
	<text transform="matrix(0.7071 0.7071 -0.7071 0.7071 -189.7249 -183.7312)" class="st6 st7 st8">Java</text>
	<text transform="matrix(0.532 0.8467 -0.8467 0.532 -149.6285 -230.2767)" class="st6 st7 st8">Sri Lanka</text>
	<text transform="matrix(0.3303 0.9439 -0.9439 0.3303 -93.8251 -255.6884)" class="st6 st7 st8">Sumatra</text>
	<text transform="matrix(0.112 0.9937 -0.9937 0.112 -34.4296 -269.5069)" class="st6 st7 st8">Vietnam</text>
</g>
</svg>
